<?xml version="1.0" encoding="UTF-8" standalone="no"?>
<!-- Created with Inkscape (http://www.inkscape.org/) -->

<svg
   width="404.83578"
   height="270.6236"
   viewBox="0 0 107.1128 71.602493"
   version="1.1"
   id="svg1"
   xml:space="preserve"
   xmlns:inkscape="http://www.inkscape.org/namespaces/inkscape"
   xmlns:sodipodi="http://sodipodi.sourceforge.net/DTD/sodipodi-0.dtd"
   xmlns="http://www.w3.org/2000/svg"
   xmlns:svg="http://www.w3.org/2000/svg"><sodipodi:namedview
     id="namedview1"
     pagecolor="#ffffff"
     bordercolor="#000000"
     borderopacity="0.25"
     inkscape:showpageshadow="2"
     inkscape:pageopacity="0.0"
     inkscape:pagecheckerboard="0"
     inkscape:deskcolor="#d1d1d1"
     inkscape:document-units="px"
     showborder="false" /><defs
     id="defs1" /><g
     inkscape:label="Layer 1"
     inkscape:groupmode="layer"
     id="layer1"><g
       id="g2"
       transform="translate(118.3212,-67.039639)"><path
         style="fill:#ffffff;fill-rule:evenodd;stroke:none;stroke-width:2.64583;stroke-linecap:round;stroke-linejoin:round;stroke-dasharray:none;stroke-opacity:1;paint-order:stroke fill markers"
         d="m -116.44357,102.54605 11.02023,-15.657665 10.523247,-8.19718 7.089614,-1.990151 5.429472,-6.286789 9.166241,-0.642561 22.157494,6.543251 13.179438,18.089528 5.096205,-0.96683 9.106065,-11.27996 9.788227,-4.181829 -8.749653,21.381995 1.438936,8.875101 4.87235,12.21712 -7.2377,-1.36639 -9.8345,-11.67544 -9.089676,0.45699 -5.250341,6.04011 -5.83111,5.79518 -7.391749,2.78175 -3.63883,-2.53107 -11.758036,1.92563 2.903805,14.23273 -7.653488,-5.85598 -3.251491,-8.15116 -12.095353,-3.66891 -15.660867,-9.38412 2.83128,-3.28739 z"
         id="path2" /><path
         style="fill:#000000;stroke:#ffffff;stroke-width:2.64583;stroke-dasharray:none;stroke-opacity:1;paint-order:stroke fill markers"
         d="m -75.07996,136.91113 c -3.012864,-1.82387 -6.44823,-6.4915 -8.654177,-11.75842 -1.467904,-3.50477 -1.24101,-3.26346 -3.248568,-3.45496 -7.291115,-0.69551 -18.563635,-5.76325 -22.426365,-10.08213 -0.93773,-1.04847 -1.37803,-1.3659 -2.0803,-1.49979 -1.46885,-0.28004 -2.2261,-1.51183 -1.6614,-2.70255 0.24255,-0.51144 1.57717,-1.09408 2.9819,-1.3018 0.54772,-0.081 0.94602,-0.23825 0.88511,-0.34947 -0.192,-0.35058 -2.94977,-0.9457 -4.38236,-0.9457 -3.44291,0 -4.69141,-3.18951 -1.51197,-3.86261 0.59898,-0.1268 0.7778,-0.35033 1.37672,-1.720916 5.41262,-12.38639 12.90002,-19.42116 23.412702,-21.99738 1.091005,-0.26736 2.008768,-0.56509 2.039474,-0.66163 1.072591,-3.37226 7.144178,-9.84955 6.657243,-7.10208 -0.1549,0.87401 -0.193198,0.8777 1.135152,-0.10951 1.3678,-1.01654 2.523792,-1.22765 4.680059,-0.8547 0.918741,0.1589 2.985907,0.4871 4.593704,0.72933 8.486337,1.27855 12.414227,2.565 18.688027,6.12063 5.66712,3.21181 11.277465,9.95735 12.546685,15.0854 0.50697,2.0483 1.90962,3.10267 4.14859,3.11849 2.60145,0.0184 3.60097,-0.77383 6.16619,-4.88726 1.1079,-1.77656 3.99197,-4.87887 6.05798,-6.51638 5.01972,-3.97863 12.60028,-6.34645 10.89046,-3.40169 -0.17957,0.30928 -0.52351,1.22229 -0.76431,2.02891 -0.73798,2.4721 -3.29829,7.94336 -6.54113,13.97808 -2.25747,4.201 -2.61606,8.562396 -1.10751,13.469966 1.81756,5.91282 3.39306,9.86329 4.87235,12.21712 0.96982,1.54316 0.85123,1.77008 -0.80476,1.54 -4.43423,-0.6161 -8.88667,-4.11468 -13.40605,-10.53405 -3.1214,-4.43366 -3.34102,-4.52669 -8.69583,-3.68387 -3.8842,0.61135 -4.85339,1.05111 -5.59801,2.54001 -3.675855,7.35005 -12.384915,13.92087 -16.130425,12.17011 -0.55396,-0.25894 -0.66391,-0.24092 -0.91946,0.15066 -0.48697,0.74615 -1.82753,-0.3133 -2.81204,-2.22236 -0.13059,-0.25323 -0.58191,-0.22019 -2.435899,0.17831 -1.251589,0.26902 -3.840233,0.66886 -5.752542,0.88854 l -3.476926,0.39941 0.682661,0.95388 c 0.927008,1.2953 1.1942,1.92875 1.129158,2.67699 -0.03286,0.37799 0.319012,1.48053 0.873058,2.73559 l 0.9281,2.1024 v 2.88477 c 0,3.81527 -0.586343,4.73941 -2.335291,3.68066 z m 1.626119,-0.80156 c 0.718597,-1.51521 -0.09938,-5.7137 -1.791746,-9.19659 -0.615658,-1.26702 -1.038564,-2.30368 -0.93979,-2.30368 0.09877,0 0.23766,0.10604 0.308637,0.23563 0.164802,0.30092 0.522012,0.30653 0.522012,0.008 0,-0.38174 -1.237525,-1.84413 -2.025815,-2.39392 -0.856131,-0.59709 -7.397658,-0.93135 -6.978278,-0.35658 0.107618,0.1475 0.761735,1.54138 1.453592,3.09752 2.007577,4.51548 4.80497,8.31263 7.801846,10.59013 1.294569,0.98382 1.331038,0.99088 1.649542,0.31929 z m 10.940602,-14.56347 c -0.16348,-0.58126 -0.1693,-0.58139 1.04278,0.0237 3.14544,1.57014 8.35481,-1.11258 12.95542,-6.67177 1.52571,-1.84361 3.770585,-5.30678 3.579615,-5.52228 -0.18978,-0.21416 -3.246355,1.64904 -7.025285,4.28241 -4.64919,3.23981 -6.80385,4.36358 -11.0737,5.77549 l -1.5652,0.51756 1.01119,1.0331 c 1.14009,1.1648 1.2628,1.22893 1.07518,0.56184 z m 45.104315,-1.62006 c -2.0423,-3.56268 -4.77788,-11.46358 -5.33598,-15.41136 -0.58434,-4.1334 -0.26418,-5.339076 3.39569,-12.787556 3.50888,-7.14121 4.70882,-9.94021 4.05372,-9.45583 -0.88607,0.65516 -0.82886,0.46858 0.36959,-1.20527 2.32021,-3.24063 1.97668,-3.7478 -1.6195,-2.39096 -5.12948,1.93536 -9.97161,6.08524 -13.85705,11.87602 -2.1236,3.16495 -2.70157,3.54403 -5.4035,3.54403 -1.71119,0 -2.15437,0.0662 -2.07188,0.30937 0.18639,0.54954 -1.04563,-0.59735 -2.63354,-2.45155 -7.710395,-9.00347 -15.953165,-12.78681 -31.253617,-14.34507 -17.063354,-1.7378 -25.996023,0.72518 -33.658349,9.28052 -2.90129,3.23942 -6.61259,9.00978 -8.36359,13.00377 -0.35463,0.808896 -0.68947,1.165496 -1.52612,1.625326 -2.15288,1.18325 -1.29436,2.65517 1.41299,2.42257 1.24306,-0.1068 4.67462,0.90548 7.35703,2.17025 0.95984,0.45257 0.83535,0.66517 -0.18298,0.31248 -0.60718,-0.21029 -1.19333,-0.17441 -2.91265,0.17825 -3.4822,0.71426 -4.03022,1.99976 -1.29843,3.04572 0.71347,0.27317 1.43603,0.74264 1.71902,1.11688 0.68098,0.90059 3.93216,3.31387 6.18686,4.59239 7.927858,4.49543 16.533748,6.40113 25.854403,5.72523 12.400548,-0.89925 17.320828,-2.47072 25.132658,-8.02704 5.561965,-3.95606 9.216905,-5.55513 14.048965,-6.14654 2.24908,-0.27527 4.71681,-0.12033 4.49629,0.2823 -0.0657,0.12006 -0.0203,0.21828 0.10099,0.21828 0.42299,0 1.97151,1.78586 3.77984,4.35917 3.46024,4.92402 6.90329,7.83119 11.05822,9.3371 2.12928,0.77174 2.21725,0.68167 1.15092,-1.17848 z m -64.06816,-1.34588 c 0.107096,-0.91366 -0.268721,-2.22303 -0.730495,-2.54509 -0.09574,-0.0668 -0.629122,0.13858 -1.185298,0.45632 -0.613906,0.35073 -1.3694,0.57773 -1.92281,0.57773 -0.836548,0 -0.893788,0.0375 -0.695428,0.45577 0.254503,0.53664 0.28883,1.6649 0.05065,1.6649 -0.09102,0 -0.276702,-0.45064 -0.41262,-1.00143 -0.404238,-1.63812 -0.56355,-1.7905 -1.184119,-1.13261 -0.560979,0.59472 -2.831467,1.03077 -2.831467,0.54378 0,-0.12915 0.487473,-0.28768 1.083274,-0.35229 2.132112,-0.23119 2.956474,-2.04364 1.913283,-4.20657 l -0.553123,-1.14683 -0.78064,0.79587 c -0.429352,0.43773 -1.07247,0.8682 -1.42915,0.9566 -0.5786,0.14341 -0.6236,0.21326 -0.417437,0.64798 0.675145,1.42359 -0.429872,4.13298 -1.849626,4.5351 -0.799137,0.22634 -0.781801,-0.002 0.04385,-0.57799 1.288231,-0.89846 1.616633,-2.27866 1.045471,-4.39389 -0.120164,-0.44501 -0.01522,-0.53441 0.926589,-0.78938 1.119834,-0.30316 2.314357,-1.33124 2.314357,-1.99189 0,-0.54089 -0.577845,-2.03872 -0.979947,-2.54012 -0.378559,-0.47204 -0.236274,-0.54155 0.365099,-0.17836 0.622972,0.37624 1.093095,1.60073 0.962703,2.50748 -0.09305,0.64709 -0.02607,0.85704 0.365893,1.14686 0.95458,0.70582 1.347526,2.38752 0.861686,3.68777 -0.343919,0.92043 2.211348,0.83461 3.461704,-0.11626 0.950925,-0.72316 1.26431,-1.47631 1.146697,-2.75585 l -0.09746,-1.06034 0.311934,0.80354 c 0.288491,0.74314 0.27633,1.27456 -0.05121,2.23777 -0.281574,0.82804 2.194304,0.18396 3.262826,-0.8488 0.853466,-0.8249 1.248002,-1.6935 1.251122,-2.75445 0.0023,-0.78898 0.05876,-0.99046 0.205607,-0.73403 0.893515,1.56025 -1.498214,5.17111 -3.436041,5.18749 -0.737677,0.006 -1.023411,0.34143 -0.761611,0.89346 0.322363,0.67973 0.287008,1.98934 -0.0684,2.53345 -0.27232,0.41691 -0.288769,0.37216 -0.18587,-0.50569 z m 7.588588,-0.9681 c 0.346235,-0.6161 0.621815,-1.43108 0.621815,-1.83891 0,-0.40784 -0.27558,-1.22282 -0.621815,-1.83892 -0.722954,-1.28644 -0.571299,-1.43446 0.349016,-0.34067 1.099767,1.30708 1.076809,2.87679 -0.06446,4.40737 -0.813467,1.09095 -0.984688,0.85696 -0.284555,-0.38887 z m 4.912856,-0.88852 c 0.266893,-0.72083 0.263878,-0.94502 -0.02566,-1.90739 -0.393486,-1.30789 -0.292925,-1.53015 0.304515,-0.67305 0.526579,0.75544 0.581976,2.12343 0.116367,2.87359 -0.496604,0.80009 -0.734635,0.62353 -0.395225,-0.29315 z m 4.996261,-1.2878 c 0.3224,-1.14632 0.15261,-2.62809 -0.41134,-3.58977 -0.64058,-1.09233 -0.57153,-1.37335 0.1842,-0.74969 0.98516,0.813 1.44561,2.87833 0.90718,4.06918 -0.34432,0.76155 -0.87786,0.9736 -0.68004,0.27028 z m -3.982623,-3.18011 c 0.677959,-1.30547 0.685229,-2.32724 0.027,-3.79445 -0.601005,-1.33966 -0.577014,-1.46638 0.154655,-0.81691 1.131493,1.00438 1.245065,3.06755 0.261212,4.74526 -0.738377,1.25911 -1.108213,1.14729 -0.442866,-0.1339 z m 13.101203,0.0865 c 0.36074,-0.78102 0.39933,-1.06252 0.20993,-1.5316 -0.27035,-0.6696 0.0571,-0.79577 0.36735,-0.14155 0.23264,0.49054 0.0934,1.31769 -0.35347,2.09986 -0.51819,0.90698 -0.68921,0.5809 -0.22381,-0.42671 z m -39.813663,-2.04741 c 3.178263,-9.11481 3.573878,-13.455956 1.69103,-18.555926 -0.382765,-1.03677 -1.139397,-3.08505 -1.681404,-4.55174 -0.542006,-1.46668 -0.931356,-2.72775 -0.865221,-2.80238 0.06613,-0.0746 0.184878,0.065 0.263873,0.31038 0.079,0.24535 0.736753,1.61245 1.461686,3.03802 1.530243,3.0092 2.044385,4.56259 2.388092,7.21521 0.535796,4.1351 -0.431867,9.672656 -2.496971,14.289186 -0.600782,1.34304 -1.104947,2.0434 -0.761085,1.05725 z m 35.242993,0.14234 c 0.61149,-1.8985 0.63589,-2.27646 0.20972,-3.24849 -0.42228,-0.96316 -0.19897,-1.36861 0.3458,-0.62787 0.74396,1.01158 0.62671,2.9691 -0.22859,3.81651 -0.37642,0.37296 -0.43099,0.38295 -0.32693,0.0599 z m -12.909062,-0.73142 c 0.378111,-1.43558 0.362697,-2.25536 -0.06282,-3.3409 -0.502226,-1.28123 -0.187424,-1.36225 0.5461,-0.14055 0.555651,0.92545 0.592596,1.77074 0.133931,3.06433 -0.353239,0.99625 -0.859938,1.33869 -0.617213,0.41712 z m -13.662558,-0.54856 c -0.631261,-0.33158 -1.294746,-0.753 -1.474411,-0.93648 -0.179666,-0.18349 -0.837706,-0.65148 -1.462313,-1.03998 -1.769756,-1.10077 -0.702982,-0.83803 1.489566,0.36688 2.302893,1.26555 3.737889,1.59733 5.513164,1.2747 2.958269,-0.53762 7.415561,-4.42156 5.851538,-5.09884 -0.490111,-0.21224 -0.37592,-0.46686 0.469811,-1.04759 0.597075,-0.40998 0.696244,-0.5595 0.417609,-0.62963 -0.623296,-0.15687 -0.408574,-0.4455 0.730817,-0.98237 1.650266,-0.77759 0.956941,-1.074766 -2.453456,-1.05164 -4.799338,0.0326 -9.799001,1.79369 -13.966094,4.91958 l -0.602593,0.45202 0.273669,-0.49451 c 1.806595,-3.26447 16.388208,-7.112466 18.390351,-4.85311 0.281726,0.31792 0.01293,0.96525 -0.473103,1.13933 -0.54821,0.19634 -2.291083,2.178 -2.008914,2.28414 0.414361,0.15586 -0.243322,1.7403 -1.136721,2.7385 -2.550338,2.84951 -7.091271,4.25517 -9.55892,2.959 z m -0.627094,-2.33791 c 0,-0.0648 0.04698,-0.11782 0.104402,-0.11782 0.05742,0 0.104403,0.053 0.104403,0.11782 0,0.0648 -0.04698,0.11781 -0.104403,0.11781 -0.05742,0 -0.104402,-0.053 -0.104402,-0.11781 z m -1.409432,-0.28411 c -0.258396,-0.0562 -0.46981,-0.19223 -0.46981,-0.30237 0,-0.17972 1.440033,0.14739 1.653037,0.37549 0.102578,0.10985 -0.517792,0.0715 -1.183227,-0.0731 z m 24.677686,-0.36388 c 0.36337,-1.3796 0.34366,-2.19984 -0.0746,-3.10603 -0.51518,-1.11616 -0.45944,-1.27043 0.18104,-0.50108 0.63557,0.76345 0.80014,2.39276 0.34254,3.39134 -0.39612,0.86443 -0.65224,0.98752 -0.44897,0.21577 z m -27.165942,0.13745 c 0.07656,-0.0864 0.201844,-0.0864 0.278406,0 0.07656,0.0864 0.01392,0.15709 -0.139203,0.15709 -0.153123,0 -0.215765,-0.0707 -0.139203,-0.15709 z m 40.136522,-0.86978 c 0.068,-0.30559 -0.0242,-0.95474 -0.20483,-1.44256 -0.40494,-1.09367 -0.40813,-1.19741 -0.0259,-0.8394 0.42125,0.39451 0.79866,1.79185 0.63814,2.36261 -0.18792,0.66815 -0.5577,0.59495 -0.40744,-0.0806 z m -38.535686,0.0844 c 0.172264,-0.12563 1.111885,-0.21511 2.088047,-0.19885 1.723657,0.0287 1.741722,0.0347 0.626414,0.20872 -1.739875,0.27142 -3.09342,0.26649 -2.714461,-0.01 z m -0.336806,-0.42818 c 0.172853,-0.31561 1.061977,-0.61506 3.648465,-1.22877 2.859173,-0.6784 2.790365,-0.53658 -0.179588,0.37017 -1.435533,0.43828 -2.835489,0.86955 -3.111014,0.95837 -0.342087,0.11029 -0.455576,0.0787 -0.357863,-0.0998 z m -0.610338,-0.50061 c 0.32978,-0.60215 5.134133,-2.58653 7.054682,-2.91386 1.17856,-0.20086 0.950139,-0.0306 -0.730816,0.54488 -1.250923,0.42822 -4.366489,1.70135 -6.089591,2.48841 -0.296938,0.13563 -0.357153,0.10493 -0.234275,-0.11943 z m 7.072082,-1.34898 c 0.07656,-0.0864 0.201845,-0.0864 0.278407,0 0.07656,0.0864 0.01392,0.15709 -0.139203,0.15709 -0.153124,0 -0.215765,-0.0707 -0.139204,-0.15709 z m 13.920315,-0.35936 c 0,-0.0733 0.328867,-0.74965 0.730817,-1.50291 1.114145,-2.087926 0.920663,-3.999176 -0.55927,-5.524546 -0.769323,-0.79294 -0.4193,-0.96206 0.529766,-0.25597 1.884033,1.4017 1.84807,4.660526 -0.07437,6.738966 -0.34482,0.3728 -0.626945,0.61781 -0.626945,0.54446 z m -18.374815,-1.47243 c 0,-0.0973 0.200433,-0.49451 0.445408,-0.88275 1.106423,-1.753446 0.679033,-3.417336 -1.149543,-4.475336 l -0.808538,-0.46781 0.731649,-0.86413 c 1.992273,-2.35303 1.312776,-5.85603 -1.270915,-6.55192 -0.877523,-0.23636 -0.879443,-0.25984 -0.124681,-1.5255 1.461982,-2.45161 0.210891,-4.6764 -2.860575,-5.0869 -1.368788,-0.18294 -0.907228,-0.53325 0.708974,-0.53809 0.92801,-0.003 1.384117,0.12829 1.983645,0.57001 0.428197,0.31549 1.389294,0.69428 2.135771,0.84175 0.746477,0.14748 1.576798,0.42799 1.845158,0.62337 1.002109,0.72957 0.812786,-0.99755 -0.287689,-2.62447 -0.890476,-1.31646 -0.905502,-1.47865 -0.07517,-0.81145 1.033366,0.83036 1.46638,1.80873 1.400526,3.16441 -0.06795,1.39878 0.09682,1.76724 0.790289,1.76724 0.68011,0 1.746629,0.52857 2.321293,1.15045 0.624427,0.67573 0.792238,0.63292 1.185566,-0.30245 0.616392,-1.46583 0.264901,-3.1224 -0.967372,-4.55919 -0.821344,-0.95766 -0.303628,-1.07263 0.669436,-0.14866 1.372792,1.30354 1.642172,3.16674 0.746495,5.16323 -0.28317,0.63119 -0.494585,1.15711 -0.469811,1.16871 2.003474,0.93806 3.174704,4.32022 2.011211,5.80779 -0.341915,0.43715 -0.408796,0.46328 -0.312316,0.12203 0.345408,-1.22173 0.352132,-1.67026 0.03891,-2.59578 -0.187385,-0.5537 -0.668404,-1.36515 -1.068933,-1.80324 l -0.728233,-0.79651 v 1.01204 c 0,1.21287 -0.42998,2.31433 -1.249214,3.20004 l -0.603534,0.65251 0.432836,0.66065 c 0.477588,0.72897 0.593087,2.4278 0.195557,2.87641 -0.177168,0.19992 -0.237278,0.0748 -0.237278,-0.49383 0,-0.92745 -0.545471,-2.48013 -0.807173,-2.29761 -0.10423,0.0727 -0.249427,0.49259 -0.322658,0.9331 -0.159703,0.96066 -1.310519,2.72919 -2.077259,3.19225 -0.321003,0.19387 -0.553312,0.5379 -0.555981,0.82337 -0.0066,0.70316 -0.694966,2.298396 -1.218753,2.824266 -0.245905,0.24688 -0.447099,0.36928 -0.447099,0.272 z m 2.92075,-5.466256 c 0.97678,-1.25542 1.282065,-2.19457 1.037838,-3.19272 -0.430329,-1.75876 -2.913012,-3.17549 -2.915729,-1.66385 -0.0021,1.14326 -0.421819,2.40572 -1.082038,3.25428 -0.353546,0.4544 -0.606816,0.85338 -0.562822,0.88663 0.04399,0.0332 0.361279,0.16454 0.705077,0.29177 0.343799,0.12723 0.813609,0.56115 1.044024,0.96427 0.49117,0.85932 0.744719,0.78207 1.77365,-0.54038 z m 2.873581,-5.03337 c 1.131457,-1.87008 0.443328,-4.12273 -1.619781,-5.3025 l -0.99117,-0.56679 -0.100912,1.18514 c -0.07038,0.82658 -0.302843,1.50843 -0.768336,2.25368 -0.367083,0.58769 -0.638593,1.0855 -0.603357,1.10625 0.03524,0.0207 0.511606,0.27348 1.0586,0.56162 0.704771,0.37126 1.096245,0.76459 1.343627,1.35 0.407171,0.96354 0.832953,0.81479 1.681329,-0.5874 z m -4.494642,-1.82606 c 1.527815,-1.96636 1.433455,-4.3873 -0.211028,-5.41421 -0.974188,-0.60834 -2.254223,-0.94802 -2.030059,-0.53871 0.337976,0.61711 0.127516,2.18216 -0.418699,3.11359 -0.302736,0.51624 -0.5199,0.95854 -0.482586,0.98289 0.03731,0.0243 0.406309,0.2175 0.81999,0.42922 0.41368,0.21171 0.977453,0.70636 1.252828,1.09922 0.593083,0.8461 0.652778,0.86441 1.069554,0.328 z m 31.302279,9.99882 c -0.0156,-0.36491 -0.1257,-0.86858 -0.24458,-1.11925 -0.14499,-0.30573 -0.1463,-0.45577 -0.004,-0.45577 0.27522,0 0.48962,0.97531 0.37027,1.68436 -0.0831,0.49376 -0.0964,0.48185 -0.12171,-0.10934 z m -48.617441,-0.92704 c -1.68781,-2.09113 -0.92923,-5.59623 1.21115,-5.59623 1.44234,0 2.37161,2.09071 1.86778,4.20219 -0.42067,1.76296 -2.14941,2.54568 -3.07893,1.39404 z m 0.93977,-3.05141 c 0.6248,-0.70507 -0.0275,-2.22188 -0.68905,-1.60229 -0.31625,0.29618 -0.4312,1.43771 -0.17401,1.72795 0.21387,0.24135 0.58583,0.18719 0.86306,-0.12566 z m 58.799246,2.54105 c -0.12642,-0.46448 -0.14696,-0.84451 -0.0456,-0.84451 0.25753,0 0.42581,0.57729 0.34421,1.18082 -0.0548,0.40519 -0.1153,0.33703 -0.29856,-0.33631 z m -34.74494,-0.15311 c 0,-0.39731 -0.09727,-0.92748 -0.216152,-1.17816 -0.141479,-0.29832 -0.144017,-0.45577 -0.0073,-0.45577 0.114843,0 0.306073,0.2051 0.424956,0.45577 0.27619,0.58237 0.281285,1.90054 0.0073,1.90054 -0.114842,0 -0.208804,-0.32507 -0.208804,-0.72238 z m 4.260833,-0.12621 c 0.406744,-1.91213 0.388566,-3.1295 -0.05953,-3.98654 -0.547272,-1.04672 -0.563503,-1.38031 -0.04954,-1.0181 1.039229,0.73239 1.399037,2.99274 0.729749,4.58436 -0.450021,1.07019 -0.810916,1.31456 -0.620687,0.42028 z m 11.484562,-0.63512 c 0.007,-0.67432 -0.0657,-1.4116 -0.16247,-1.6384 -0.31726,-0.74309 0.25844,-0.44959 0.60605,0.30897 0.26857,0.58608 0.28629,0.87263 0.0945,1.52832 -0.35953,1.22935 -0.55313,1.15779 -0.53811,-0.19889 z m 4.80382,-1.96668 c -0.0161,-1.18341 0.0131,-1.2786 0.2703,-0.88204 0.31794,0.49015 0.28691,2.01353 -0.0434,2.13306 -0.12105,0.0438 -0.21639,-0.48203 -0.22686,-1.25102 z m 7.28353,-4.61625 c 0.0179,-0.42323 -0.0406,-1.0346 -0.12983,-1.35859 -0.15556,-0.56455 -0.14882,-0.57003 0.1617,-0.13169 0.35418,0.49996 0.44022,1.90788 0.12983,2.12436 -0.1068,0.0745 -0.17957,-0.21085 -0.1617,-0.63408 z m -13.4814,-0.12153 c 0.29815,-1.20311 0.11561,-2.42065 -0.54187,-3.6142 -0.7047,-1.27925 -0.60555,-1.5085 0.22026,-0.50934 0.99713,1.20643 1.34893,3.1331 0.78805,4.31576 -0.32898,0.69369 -0.6529,0.56021 -0.46644,-0.19222 z m -5.581547,-2.37979 c 0,-1.42646 -0.371805,-2.37876 -1.191955,-3.05295 l -0.577233,-0.47451 0.413766,-0.51594 c 0.446065,-0.55622 0.567596,-2.23282 0.236827,-3.26718 -0.123054,-0.38481 -0.108517,-0.51054 0.04653,-0.4024 0.471784,0.32903 0.678457,1.93708 0.376203,2.92709 -0.273884,0.89708 -0.265356,0.95075 0.19529,1.22895 0.741733,0.44796 1.191199,1.742 1.075799,3.09729 -0.1446,1.69822 -0.575224,2.04232 -0.575224,0.45965 z m -5.176334,-0.79195 c -0.01398,-1.54316 -0.246346,-2.24952 -1.101608,-3.34875 -0.756064,-0.97174 -0.705632,-1.27086 0.135802,-0.80548 1.084389,0.59976 1.444034,1.45482 1.444034,3.4332 0,1.10721 -0.08888,1.82203 -0.233468,1.87761 -0.151818,0.0584 -0.237416,-0.34611 -0.24476,-1.15658 z m 14.274941,-1.59978 c 0.21369,-0.82962 0.21894,-2.1337 0.0114,-2.82757 -0.16512,-0.552 -0.15362,-0.56465 0.18263,-0.20101 0.59123,0.63939 0.65223,2.33173 0.10927,3.03135 l -0.45502,0.5863 z m 19.075125,3.73503 c -4.47743,-10.02095 -15.923065,-17.30919 -29.739768,-18.9374 -1.837481,-0.21654 -3.904648,-0.54119 -4.593703,-0.72145 -2.546074,-0.66606 -3.773116,-0.4528 -5.385375,0.93597 -1.217287,1.04855 -1.493445,1.07832 -1.327697,0.14311 0.163788,-0.92416 0.0173,-0.89226 -1.168149,0.25437 -1.000395,0.96763 -4.437634,5.83346 -4.261323,6.03242 0.05239,0.0591 1.067592,-0.0207 2.256009,-0.17747 5.104439,-0.67317 17.02142,0.44112 25.742731,2.40706 6.7414,1.51963 12.74285,4.994 17.593915,10.18551 1.69525,1.81421 1.74543,1.80728 0.88336,-0.12212 z"
         id="path1" /></g></g></svg>
