<?xml version="1.0" encoding="UTF-8" standalone="no"?>
<!-- Created with Inkscape (http://www.inkscape.org/) -->

<svg
   width="315.41315"
   height="228.30191"
   viewBox="0 0 83.45306 60.40488"
   version="1.1"
   id="svg1"
   xml:space="preserve"
   xmlns:inkscape="http://www.inkscape.org/namespaces/inkscape"
   xmlns:sodipodi="http://sodipodi.sourceforge.net/DTD/sodipodi-0.dtd"
   xmlns="http://www.w3.org/2000/svg"
   xmlns:svg="http://www.w3.org/2000/svg"><sodipodi:namedview
     id="namedview1"
     pagecolor="#ffffff"
     bordercolor="#000000"
     borderopacity="0.25"
     inkscape:showpageshadow="2"
     inkscape:pageopacity="0.0"
     inkscape:pagecheckerboard="0"
     inkscape:deskcolor="#d1d1d1"
     inkscape:document-units="px"
     showborder="false" /><defs
     id="defs1" /><g
     inkscape:label="Layer 1"
     inkscape:groupmode="layer"
     id="layer1"
     transform="translate(-221.97559,-44.975452)"><g
       id="g4"><path
         style="fill:#ffffff;fill-rule:evenodd;stroke:none;stroke-width:2.64583;stroke-linecap:round;stroke-linejoin:round;stroke-dasharray:none;stroke-opacity:1;paint-order:stroke fill markers"
         d="m 224.51943,71.561112 15.63295,-14.600591 6.97285,-8.790041 5.79913,-0.75665 10.77775,4.167749 12.85965,-0.575197 4.85759,5.919994 2.46409,7.635489 5.90598,-2.116199 5.33707,-6.557232 6.79553,6.499299 1.23722,13.968317 c -2.82479,4.700653 -5.49322,6.476878 -7.94544,4.209061 l -7.88421,-4.768699 -5.13282,4.03475 1.73861,4.145518 -3.58577,5.66303 -8.33297,-1.162568 -11.73407,3.393408 5.2463,6.098431 -1.01411,4.931159 -10.69178,-4.002378 -3.38171,-5.446771 -14.18568,-5.31142 -8.77285,-7.697759 z"
         id="path4"
         sodipodi:nodetypes="cccccccccccccccccccccccccc" /><path
         style="fill:#000000;stroke:#ffffff;stroke-width:2.64583;stroke-dasharray:none;stroke-opacity:1;paint-order:stroke fill markers"
         d="m 260.79581,103.7848 c -2.08723,-0.6629 -4.79535,-2.56093 -6.97283,-4.887039 -0.81365,-0.86917 -3.72893,-4.73017 -4.1388,-5.48143 -0.0145,-0.0266 -0.89045,-0.13788 -1.9466,-0.2474 -7.14186,-0.74057 -15.7175,-5.57952 -20.20704,-11.40216 -0.77802,-1.00905 -1.65535,-1.95884 -1.94963,-2.11065 -1.60191,-0.8264 -2.42198,-2.32253 -2.0371,-3.71645 0.14202,-0.51433 0.14074,-0.8711 -0.004,-1.14172 -0.5638,-1.05347 -0.0642,-2.70434 0.97962,-3.23684 0.55964,-0.28551 1.00227,-0.81675 1.803,-2.16398 2.55703,-4.302172 7.35753,-8.716812 13.01322,-11.967225 l 1.63346,-0.938771 0.25801,-1.26488 c 0.5314,-2.605107 2.1459,-5.136433 4.31699,-6.768473 3.94275,-2.963824 6.55789,-2.895085 12.12457,0.318698 5.65679,3.265805 7.05926,3.526119 12.21359,2.266973 4.41286,-1.078016 7.36352,-0.466321 9.87753,2.047692 1.95436,1.954355 2.96222,4.63239 3.02715,8.043526 l 0.0382,2.006166 1.40297,0.670031 c 2.57328,1.228951 3.49543,0.829688 5.3776,-2.328338 2.08446,-3.497446 3.57601,-5.008811 5.52077,-5.594095 1.17785,-0.354483 1.96348,-0.126413 3.52547,1.023455 7.0996,5.226433 7.32736,21.817751 0.33215,24.196591 -2.20487,0.7498 -3.40275,0.39887 -6.37679,-1.86819 -4.33418,-3.30386 -6.14657,-3.46801 -9.15231,-0.82893 l -0.69985,0.61447 0.78471,1.56403 c 2.14787,4.28103 1.12319,7.76013 -2.83047,9.61027 -2.58268,1.20858 -5.33743,0.94507 -8.12826,-0.77752 -1.46441,-0.90388 -1.17027,-0.94973 -5.12891,0.79946 -1.87195,0.82715 -4.06562,1.71333 -4.87482,1.96927 -1.55728,0.49257 -1.74926,0.65518 -1.03945,0.88046 1.24695,0.39577 3.3395,2.9635 3.99091,4.89718 1.42697,4.235899 -0.85983,7.045909 -4.73295,5.815819 z m 3.71895,-0.88466 c 2.36237,-1.76377 0.006,-7.439749 -3.91148,-9.421799 l -1.14625,-0.57995 -4.48016,0.24859 c -2.46409,0.13672 -4.50511,0.27352 -4.5356,0.30401 -0.0305,0.0305 0.65707,0.95492 1.52791,2.0543 4.65007,5.870439 10.20322,9.143679 12.54558,7.394849 z m -4.23219,-11.029489 c 0.82858,-0.17638 1.98902,-0.46095 2.57874,-0.63239 1.29756,-0.37721 1.43595,0.0121 -1.63019,-4.58648 l -2.2531,-3.37922 -0.83713,-0.004 c -2.53829,-0.0118 -5.20203,-1.55929 -7.57805,-4.4024 l -0.72198,-0.86392 -1.38974,1.37715 c -1.04214,1.03268 -2.19806,1.85038 -4.62138,3.26916 -4.41681,2.58589 -7.57415,4.87486 -7.57415,5.49102 0,0.37803 5.96105,3.05449 8.07909,3.62744 2.39232,0.64714 13.06856,0.71646 15.94789,0.10354 z m 6.57255,-2.08197 c 2.12735,-0.82751 4.62171,-2.12958 6.60143,-3.44601 1.63046,-1.08418 1.60832,-0.78101 0.29112,-3.9868 -2.41214,-5.87064 -2.6737,-8.76748 -1.16713,-12.92653 1.72657,-4.766366 1.98109,-6.430158 1.37651,-8.998195 -0.59915,-2.544985 -1.02767,-2.941962 -4.57721,-4.240317 -1.74261,-0.637412 -6.26322,-1.874182 -6.38937,-1.748032 -0.0379,0.03793 0.15715,0.960325 0.43351,2.049772 0.81882,3.22789 0.53333,5.316442 -1.19794,8.763598 l -0.92197,1.835754 0.77574,0.20889 c 6.56893,1.76883 5.14512,13.59031 -1.87353,15.55541 -0.50891,0.14249 -0.9253,0.30019 -0.9253,0.35045 0,0.0503 1.1134,1.76291 2.47422,3.8059 2.0912,3.1395 2.53676,3.69662 2.87818,3.59886 0.22217,-0.0636 1.22196,-0.43385 2.22174,-0.82275 z m 13.49449,-0.14897 c 3.03674,-1.24867 4.13737,-2.9869 3.58577,-5.66303 -0.24983,-1.21209 -1.48009,-4.14552 -1.7386,-4.14552 -0.0747,0 -1.28493,1.10601 -2.68933,2.45779 -2.93673,2.82671 -4.94692,4.47751 -6.61305,5.43078 -0.69676,0.39864 -1.05163,0.70486 -0.87776,0.75741 0.16053,0.0485 0.8973,0.34956 1.63727,0.66899 2.61215,1.12758 4.76745,1.28646 6.6957,0.49358 z m -43.57846,-2.54846 c 0.80937,-0.8448 3.44145,-2.6129 7.05859,-4.7416 2.89496,-1.7037 5.38897,-3.69896 5.64945,-4.51968 0.0811,-0.25544 0.45776,-0.001 1.65229,1.11455 3.35935,3.13819 6.63043,4.13693 9.91913,3.02857 3.06414,-1.03268 5.3274,-5.16117 4.69896,-8.57155 -1.16356,-6.31428 -7.61457,-7.094993 -13.76291,-1.66562 -1.17605,1.03853 -1.38913,0.83705 -0.33747,-0.3191 1.09358,-1.20222 -1.15319,-6.130429 -4.52388,-9.922977 -1.57913,-1.77677 -4.58509,-4.486099 -4.97724,-4.486099 -0.65663,0 -5.59741,3.032839 -7.86466,4.827635 l -1.06329,0.841717 2.38869,2.366235 c 3.4622,3.429659 4.66538,5.472529 4.67973,7.945709 0.0161,2.7708 -1.59702,4.89097 -8.16148,10.72697 l -0.79591,0.70759 2.20975,1.6417 c 2.52248,1.87402 2.44218,1.84852 3.23025,1.02595 z m 18.16732,-6.41231 c -1.16319,-0.40417 -2.79992,-1.45592 -4.21611,-2.70926 -2.60262,-2.30334 -0.54886,-5.1811 5.52603,-7.74316 2.34446,-0.98877 1.98793,-0.68153 -0.85547,0.73719 -2.3606,1.17783 -4.74158,2.72885 -4.52364,2.9468 0.0562,0.0562 0.49492,-0.16695 0.97485,-0.49598 0.92799,-0.6362 2.87406,-1.6649 3.13812,-1.65881 0.087,0.002 -0.54619,0.41411 -1.40712,0.91578 -1.83124,1.06707 -1.97662,1.2596 -0.50494,0.66868 1.61756,-0.64951 6.1786,-2.19461 6.46351,-2.1896 0.36443,0.006 -1.18914,0.69043 -4.12651,1.81687 -1.40852,0.54015 -2.9082,1.17326 -3.33262,1.40693 l -0.77168,0.42485 1.00988,-0.11309 c 2.29079,-0.25651 6.26306,-0.33945 5.95833,-0.1244 -0.16664,0.11759 -0.84831,0.21508 -1.51483,0.21665 -1.461,0.003 -5.95833,0.61734 -5.95833,0.81335 0,0.0767 0.79529,0.20274 1.7673,0.28017 0.97202,0.0774 2.35809,0.2681 3.08015,0.4237 l 1.31285,0.28291 -2.6257,-0.0937 c -4.12279,-0.14716 -1.67229,0.48422 4.86383,1.25319 2.01136,0.23663 2.84539,0.40182 2.50834,0.49678 -1.15636,0.32583 -2.93866,0.15674 -9.6949,-0.91972 -2.06507,-0.32903 4.21503,2.18308 7.06919,2.82775 l 1.31286,0.29653 -1.58836,-0.10148 c -1.38748,-0.0887 -3.37217,-0.62056 -6.08677,-1.6313 -0.7606,-0.28319 0.57357,0.66177 2.13913,1.51512 1.62608,0.88632 1.64675,1.00074 0.0826,0.45727 z m 24.5836,0.62036 c 2.94948,-2.86474 3.87695,-3.88226 3.8201,-4.19102 -0.11672,-0.63393 -0.12998,-5.59645 -0.0221,-8.28487 0.15301,-3.814365 -0.11447,-4.694191 -1.69013,-5.559442 -1.09517,-0.601404 -4.16808,-2.638137 -6.925,-4.589913 -1.27864,-0.905216 -1.31107,-0.864735 -0.72821,0.908897 0.76255,2.320409 0.71487,4.583547 -0.14787,7.018708 -2.0788,5.86753 -2.23251,6.70646 -1.7453,9.52561 0.46856,2.71125 2.79446,8.95529 3.33584,8.95529 0.11414,0 1.96036,-1.70247 4.10271,-3.78326 z m -46.90206,1.64063 c 8.03781,-7.06543 9.07571,-9.79828 5.58113,-14.6955 -0.87814,-1.23059 -5.01605,-5.37935 -5.36529,-5.37935 -0.77866,0 -4.79614,4.30199 -6.13013,6.56426 -0.45854,0.77761 -1.26891,1.84998 -1.80083,2.38305 -2.32411,2.32911 -0.96547,4.10836 4.18052,5.47472 0.22217,0.059 -0.14058,0.0614 -0.80611,0.005 -1.20277,-0.10133 -3.10098,-0.82298 -3.77918,-1.43675 -0.3246,-0.29375 -0.36562,-0.29264 -0.48293,0.0131 -0.34636,0.9026 0.86617,2.46563 2.94746,3.79947 1.45094,0.92986 1.62937,1.19639 0.51809,0.77388 -0.28495,-0.10834 -0.51809,-0.12509 -0.51809,-0.0372 0,0.21923 3.73931,3.87016 3.96184,3.8682 0.0983,-8.7e-4 0.86036,-0.60079 1.69352,-1.33315 z m 0.0807,-10.7365 c -1.04095,-0.69506 -0.80337,-2.83058 0.44346,-3.98611 1.29745,-1.20243 2.61265,0.0207 2.09387,1.9473 -0.38177,1.41777 -1.78218,2.54304 -2.53733,2.03881 z m 1.20543,-2.89827 c 0.33199,-0.47398 0.23337,-0.9867 -0.18979,-0.9867 -0.34967,0 -0.7579,0.74991 -0.61332,1.12666 0.15654,0.40795 0.45588,0.35578 0.80311,-0.13996 z m 64.60125,11.26051 c 5.22954,-1.57386 6.77304,-9.79073 3.41463,-18.177938 -2.71817,-6.788319 -7.59528,-7.859155 -10.88223,-2.389343 l -0.40136,0.667909 0.81489,2.260759 c 1.35729,3.765523 1.28858,8.937153 -0.17025,12.812883 -0.27153,0.7214 -0.49369,1.3332 -0.49369,1.35957 0,0.12142 3.96004,3.22328 4.42443,3.4656 0.67299,0.35119 2.12772,0.35143 3.29358,5.6e-4 z m -11.1778,-4.76926 c 0.51429,0.003 1.45952,0.22046 2.10052,0.48405 1.32746,0.54588 1.25273,0.59476 1.83907,-1.2028 1.26308,-3.87229 1.25634,-8.05122 -0.0193,-11.960108 -0.6389,-1.957767 -0.63613,-1.956491 -1.46046,-0.671887 -1.77706,2.769314 -3.46997,3.375907 -5.90597,2.116199 l -0.58363,-0.301806 0.15969,1.069811 c 0.16848,1.128681 0.17281,1.952271 0.0402,7.634071 -0.10508,4.50234 -0.16438,4.36735 1.54141,3.50883 0.9648,-0.48558 1.62188,-0.67978 2.28847,-0.67636 z m -33.74087,-5.99371 c 1.63774,-1.34057 3.63428,-2.23347 5.69223,-2.54568 l 1.71681,-0.26046 0.85624,-1.611293 c 1.8032,-3.39328 2.16998,-6.803479 1.06845,-9.934193 -0.51069,-1.451472 -0.2899,-1.348539 -3.84348,-1.791831 -3.76906,-0.470172 -6.80875,-0.318262 -9.93079,0.496297 -1.97925,0.516402 -6.30691,2.056509 -6.59873,2.348328 -0.0473,0.04731 1.06568,1.192637 2.4733,2.545171 4.26074,4.093984 6.51652,7.578171 7.08016,10.935731 0.15803,0.9414 0.10542,0.94785 1.48581,-0.18207 z m 28.88063,-8.227032 c 0.14386,-2.21482 -1.31971,-6.03711 -2.97115,-7.759529 -2.55091,-2.660551 -5.89372,-3.27339 -10.79693,-1.979407 -3.56088,0.939735 -6.22286,0.524228 -10.22823,-1.596519 -0.94424,-0.499955 -2.57897,-1.340417 -3.63274,-1.867695 l -1.91594,-0.958688 h -2.13408 c -2.05856,0 -2.18825,0.02678 -3.66505,0.756648 -2.59046,1.280275 -4.94419,4.302154 -5.58543,7.170955 -0.22585,1.01041 -0.22504,1.010615 1.30538,0.333282 9.84919,-4.359048 21.70083,-3.770974 30.37219,1.507057 1.16642,0.709968 3.0751,1.865263 4.24152,2.567323 1.16642,0.702059 2.6661,1.644609 3.33262,2.094556 1.45713,0.983657 1.59801,0.961157 1.67784,-0.267983 z"
         id="path3" /></g></g></svg>
