<?xml version="1.0" encoding="UTF-8" standalone="no"?>
<!-- Created with Inkscape (http://www.inkscape.org/) -->

<svg
   width="82.494926mm"
   height="53.820148mm"
   viewBox="0 0 82.494926 53.820148"
   version="1.1"
   id="svg1"
   xml:space="preserve"
   xmlns:inkscape="http://www.inkscape.org/namespaces/inkscape"
   xmlns:sodipodi="http://sodipodi.sourceforge.net/DTD/sodipodi-0.dtd"
   xmlns="http://www.w3.org/2000/svg"
   xmlns:svg="http://www.w3.org/2000/svg"><sodipodi:namedview
     id="namedview1"
     pagecolor="#ffffff"
     bordercolor="#000000"
     borderopacity="0.25"
     inkscape:showpageshadow="2"
     inkscape:pageopacity="0.0"
     inkscape:pagecheckerboard="0"
     inkscape:deskcolor="#d1d1d1"
     inkscape:document-units="mm" /><defs
     id="defs1" /><g
     inkscape:label="Layer 1"
     inkscape:groupmode="layer"
     id="layer1"><g
       id="g2"
       transform="translate(90.429875,-5.6745364)"><path
         style="opacity:1;fill:#ffffff;fill-rule:evenodd;stroke:none;stroke-width:2.64583;stroke-dasharray:none;stroke-opacity:1;paint-order:stroke fill markers"
         d="m -89.027592,34.622364 10.62931,-13.207488 21.180465,-14.3358601 13.390557,9.6182601 7.487099,7.47119 11.56536,-10.60864 14.63661,1.9974 -14.36833,13.867967 8.40553,17.884539 -17.107559,-6.258999 -3.04442,-9.71809 -7.109042,2.88381 -1.071427,8.286279 -12.971952,6.433241 10.621677,4.15926 -0.926796,3.19876 -10.699282,-0.265962 -5.328359,-7.264328 -15.226641,-6.057699 z"
         id="path2" /><path
         style="fill:#000000;stroke:#ffffff;stroke-width:2.64583;stroke-dasharray:none;stroke-opacity:1;paint-order:stroke fill markers"
         d="m -51.930537,58.012893 c -1.178491,-0.0819 -2.236344,-0.36007 -3.042428,-0.8 -0.331224,-0.18077 -0.948113,-0.56624 -1.410538,-0.8814 l -0.187599,-0.12786 -0.09676,0.0637 c -0.570412,0.37583 -1.311668,0.48145 -2.043618,0.29118 -0.46061,-0.11974 -0.990982,-0.39421 -1.407835,-0.72855 -0.63241,-0.50724 -1.285737,-1.37025 -1.770327,-2.33851 -0.57568,-1.15026 -0.980745,-2.55424 -1.287982,-4.46423 l -0.03084,-0.19172 -0.07527,-0.009 c -0.0414,-0.005 -0.245888,-0.0331 -0.454417,-0.0628 -2.938833,-0.41763 -5.781482,-1.29242 -8.429172,-2.59396 -0.39938,-0.19632 -0.51758,-0.24701 -0.98849,-0.42386 -1.71117,-0.64264 -2.97545,-1.16188 -4.54295,-1.86582 -0.0819,-0.0368 -0.18855,-0.0855 -0.23696,-0.10817 -0.0484,-0.0227 -0.14895,-0.0699 -0.22343,-0.10491 -0.0745,-0.035 -0.16892,-0.079 -0.20988,-0.0978 -0.61951,-0.28439 -1.65957,-0.81196 -2.44412,-1.23977 -1.65184,-0.90073 -3.37322,-2.00452 -4.50669,-2.88977 -1.19396,-0.9325 -2.12517,-1.89397 -2.77121,-2.86124 -0.44626,-0.66816 -0.82959,-1.46876 -0.93654,-1.95604 -0.29631,-1.35002 0.27102,-2.99025 1.77527,-5.13259 0.36478,-0.51952 0.74955,-1.02516 1.46829,-1.92957 0.24562,-0.30907 0.56849,-0.72037 0.71749,-0.91401 1.06887,-1.389017 2.00923,-2.399827 3.24518,-3.488287 1.23015,-1.08335 2.81535,-2.21498 4.25124,-3.03486 0.0261,-0.0149 0.11137,-0.064 0.18957,-0.1092 0.32617,-0.18845 0.9528,-0.5242 1.31008,-0.70195 0.27349,-0.13607 0.38253,-0.19679 0.38253,-0.21304 0,-0.0125 0.01,-0.0366 0.0216,-0.0536 0.0194,-0.0277 0.0289,-0.03 0.0914,-0.0222 0.0664,0.008 0.0805,0.004 0.29318,-0.0952 0.86745,-0.40338 1.72324,-0.75098 2.65181,-1.07711 0.29785,-0.1046 0.3525,-0.12806 0.3826,-0.1642 0.0359,-0.0431 0.0443,-0.0442 0.13076,-0.0174 0.0252,0.008 0.0305,0.004 0.0305,-0.0201 0,-0.0163 0.007,-0.0419 0.0147,-0.0571 0.008,-0.0151 0.27773,-0.20139 0.59918,-0.4139 1.33718,-0.884 1.42173,-0.97164 2.61413,-2.7097 0.71988,-1.0493 0.99885,-1.41679 1.453404,-1.91456 0.217755,-0.23846 0.410067,-0.42528 0.736233,-0.7152 1.676095,-1.48986 3.45725,-2.6125499 5.530096,-3.4857199 1.148041,-0.4836 2.428158,-0.89953 3.920533,-1.27385 0.392964,-0.0986 0.41602,-0.10278 0.485957,-0.0889 0.09442,0.0188 0.167478,0.07 0.239596,0.16775 0.110431,0.14975 0.113451,0.16744 0.11328,0.66354 -1.09e-4,0.31418 0.0054,0.47233 0.01953,0.565 0.08309,0.54347 0.361492,0.83241 1.194337,1.2395498 0.65721,0.32128 1.262173,0.5435001 2.638748,0.9693101 1.898379,0.58721 2.80711,0.92495 3.822463,1.42066 0.852138,0.41603 1.727606,0.95475 2.319371,1.42724 0.05644,0.0451 0.123269,0.0972 0.14851,0.11579 0.02524,0.0186 0.08874,0.0705 0.141117,0.11521 0.05237,0.0448 0.116552,0.0989 0.142618,0.1203 0.05207,0.0428 0.191694,0.1668 0.350844,0.31164 0.47164,0.42924 1.06639,1.10247 1.49044,1.68709 0.79091,1.09041 1.46338,2.42197 1.92162,3.80498 l 0.0696,0.20988 0.274,0.14092 c 1.15284,0.59288 2.22429,1.24104 3.124355,1.89003 0.99628,0.71837 1.22119,0.88096 1.44428,1.0441 0.1403,0.10261 0.37796,0.27875 0.52814,0.39143 l 0.27304,0.20487 0.45979,-0.45451 c 0.52442,-0.51839 0.59925,-0.61191 0.71799,-0.8972 0.0603,-0.14494 0.0911,-0.28857 0.12429,-0.57964 0.0583,-0.51141 0.15536,-1.14912 0.24528,-1.61123 0.13136,-0.67507 0.34174,-1.30367 0.62995,-1.88231 0.32984,-0.6622 0.67076,-1.12574 1.26464,-1.71949 1.3173,-1.31702 2.97454,-2.22277 5.17912,-2.83059 0.95182,-0.26243 1.84857,-0.41666 2.87743,-0.49488 0.38401,-0.0292 1.44674,-0.0407 1.87611,-0.0203 0.98997,0.047 1.88086,0.15192 2.94888,0.34727 1.13846,0.20823 1.63555,0.34052 2.961,0.78801 1.60311,0.54124 1.98015,0.66298 2.48474,0.80232 0.59777,0.16507 1.22025,0.28977 1.72646,0.34586 0.2677,0.0297 0.89642,0.0409 1.1411,0.0204 0.73396,-0.0615 1.39077,-0.26275 1.9462102,-0.5963 0.16411,-0.0986 0.2316,-0.11385 0.3324,-0.0754 0.12356,0.0472 0.26645,0.23582 0.28513,0.37641 0.009,0.0673 -0.0324,0.32194 -0.0916,0.56481 -0.26484,1.08535 -0.8935002,2.06776 -1.9276802,3.01238 -0.64802,0.59191 -1.41507,1.14452 -2.82973,2.03868 -1.38194,0.87347 -1.77622,1.1378 -2.45089,1.6431 -2.53733,1.90037 -4.21284,3.96454 -5.17894,6.380257 -0.39469,0.98692 -0.66855,2.06148 -0.78155,3.06661 -0.03,0.26711 -0.0344,1.17259 -0.007,1.43533 0.18201,1.73892 0.83958,3.26982 2.2521,5.24318 0.29887,0.41753 0.97421,1.31863 1.01268,1.35121 0.004,0.004 0.0353,0.0433 0.0687,0.088 0.0334,0.0447 0.0943,0.12388 0.13538,0.17598 0.0411,0.0521 0.0793,0.10084 0.085,0.10832 0.10684,0.13973 0.27362,0.35375 0.27968,0.35889 0.004,0.004 0.026,0.0311 0.048,0.0609 0.022,0.0298 0.0464,0.0616 0.0541,0.0706 0.0263,0.0309 0.0423,0.0513 0.0986,0.12572 0.0309,0.041 0.0947,0.12419 0.14159,0.18495 0.46998,0.60847 0.93208,1.24395 1.20956,1.66338 1.13415,1.71434 1.70651,3.3663 1.66784,4.81377 -0.024,0.89795 -0.26221,1.65491 -0.7452,2.36796 -0.10857,0.16029 -0.14847,0.19126 -0.24594,0.19091 -0.0878,-3.2e-4 -0.16543,-0.0365 -0.25192,-0.11737 -0.10784,-0.10084 -0.14216,-0.16201 -0.22316,-0.39779 -0.12213,-0.3555 -0.2377,-0.61 -0.40404,-0.88975 -0.71089,-1.19555 -1.95244,-1.93067 -3.79924,-2.24952 -0.88204,-0.15229 -1.66354,-0.20519 -3.41906,-0.23147 -0.91,-0.0136 -1.15664,-0.0238 -1.49627,-0.0617 -1.55716,-0.17398 -3.03842,-0.80768 -4.47547,-1.91467 -1.01103,-0.77881 -1.96293,-1.86358 -2.65864,-3.02976 -0.62998,-1.05599 -1.08265,-2.28314 -1.46247,-3.96462 -0.14407,-0.63783 -0.18904,-0.9188 -0.30662,-1.91602 -0.11268,-0.95562 -0.16119,-1.29628 -0.24481,-1.71882 -0.18485,-0.93419 -0.44773,-1.59639 -0.83048,-2.09203 -0.0341,-0.0442 -0.0662,-0.0866 -0.0714,-0.0943 -0.006,-0.008 -0.057,0.0187 -0.12864,0.0677 -0.5469,0.37412 -1.11914,0.65788 -2.43864,1.20927 -0.997055,0.41664 -1.469775,0.63615 -1.915125,0.88928 -0.76365,0.43406 -1.30894,0.91442 -1.68441,1.48386 -0.17616,0.26717 -0.3996,0.74186 -0.37326,0.79299 0.0235,0.0456 0.15306,0.44093 0.21906,0.66844 0.28012,0.96551 0.36527,1.93983 0.25016,2.86256 -0.1475,1.18231 -0.664,2.46212 -1.42493,3.53075 -0.88577,1.24395 -2.13861,2.30548 -3.835337,3.24967 -1.897055,1.05567 -4.573162,2.01007 -7.000616,2.49668 -0.100541,0.0202 -0.187755,0.0409 -0.193808,0.0461 -0.0061,0.005 0.02137,0.0137 0.06093,0.0189 0.280998,0.0369 1.042346,0.20102 1.703612,0.3673 1.672952,0.4207 2.952407,0.86107 4.387233,1.51004 0.327745,0.14824 1.20572,0.58751 1.489493,0.74523 0.362716,0.2016 0.773247,0.46865 1.010326,0.65722 0.04553,0.0362 0.106097,0.0841 0.134597,0.10646 0.111806,0.0876 0.156436,0.1266 0.349096,0.30467 0.1264,0.11682 0.32836,0.34485 0.44973,0.50778 0.27273,0.36611 0.43299,0.71615 0.49597,1.08327 0.0352,0.2053 0.0287,0.53988 -0.0141,0.72564 -0.16645,0.72247 -0.7568,1.44807 -1.680913,2.06601 -1.094693,0.73199 -2.486441,1.18481 -4.116416,1.33932 -0.264963,0.0251 -1.280481,0.0372 -1.550427,0.0184 z m 0.344063,-0.78486 c 1.213616,-0.0542 2.492749,-0.36243 3.875963,-0.93404 1.009248,-0.41707 1.760592,-1.02006 2.10892,-1.69251 0.16609,-0.32064 0.22926,-0.62537 0.19099,-0.9213 -0.0885,-0.684 -0.59352,-1.23931 -1.692625,-1.86104 -0.436808,-0.24709 -0.772604,-0.41063 -1.557197,-0.75838 -1.694213,-0.75092 -2.992608,-1.23953 -4.17058,-1.56946 -0.189507,-0.0531 -0.763675,-0.19813 -0.78097,-0.1973 -0.0061,3e-4 0.128978,0.0512 0.30027,0.11322 0.772678,0.27954 1.278531,0.50496 2.511827,1.11936 1.269594,0.63249 1.687747,0.85304 2.213927,1.16775 0.556832,0.33303 1.123227,0.74414 1.436969,1.043 0.07168,0.0683 0.148704,0.13938 0.171166,0.158 0.02246,0.0186 0.109807,0.10857 0.194098,0.1999 0.159673,0.17301 0.187888,0.22503 0.155182,0.28614 -0.01892,0.0353 -0.07544,0.0375 -0.123028,0.005 -0.01884,-0.013 -0.122425,-0.0943 -0.230195,-0.18062 -1.191721,-0.95491 -2.694686,-1.75717 -4.677963,-2.49703 -0.37627,-0.14037 -0.809163,-0.29276 -1.313462,-0.46238 -0.556814,-0.18729 -1.971888,-0.64398 -1.977623,-0.63825 -0.0023,0.002 0.09751,0.0493 0.2217,0.10455 1.332588,0.59275 2.741641,1.3872 4.28833,2.41785 0.614682,0.4096 1.048064,0.71128 1.111975,0.77407 0.08063,0.0792 0.09726,0.19146 0.03033,0.20468 -0.01047,0.002 -0.14692,-0.0733 -0.303218,-0.16754 -0.819514,-0.49401 -1.782307,-1.03059 -3.054991,-1.7026 -0.735363,-0.3883 -1.050011,-0.52562 -2.503346,-1.0925 -0.44457,-0.17341 -0.827618,-0.33051 -1.068918,-0.43839 -0.09265,-0.0414 -0.170582,-0.0732 -0.173186,-0.0706 -0.0066,0.007 0.320321,0.21534 0.808797,0.51648 0.913916,0.56342 1.137116,0.71898 1.638442,1.14194 0.390463,0.32942 0.388119,0.3275 0.53901,0.43949 0.160252,0.11893 0.281482,0.19343 0.455445,0.2799 0.132074,0.0656 0.188365,0.12452 0.180831,0.18911 -0.0052,0.0445 -0.04893,0.0502 -0.162778,0.0212 -0.125841,-0.0321 -0.223744,-0.0859 -0.619824,-0.34084 -0.486727,-0.31326 -0.945265,-0.59913 -1.415018,-0.88219 -0.515999,-0.31093 -0.694148,-0.41151 -1.252528,-0.7072 -0.716662,-0.37951 -0.933127,-0.50348 -1.266561,-0.72539 -0.227578,-0.15146 -0.463012,-0.33671 -0.602556,-0.47413 l -0.102037,-0.10048 -0.202632,0.009 c -0.29121,0.0131 -0.28696,0.0104 -0.158708,0.10219 0.348927,0.24982 0.740444,0.59027 1.459528,1.26918 0.828443,0.78215 1.074598,0.99383 1.618173,1.39152 0.34228,0.25042 0.566223,0.42161 1.157282,0.8847 1.330005,1.04205 1.958148,1.47891 2.636709,1.83375 0.208764,0.10916 0.260778,0.15261 0.275287,0.22995 0.02293,0.12225 -0.01985,0.1282 -0.241282,0.0335 -0.583737,-0.24957 -1.150422,-0.56546 -1.878575,-1.04719 -0.42726,-0.28267 -0.692279,-0.46899 -1.570738,-1.10432 -0.346307,-0.25046 -0.742376,-0.53381 -0.880155,-0.62967 -0.679086,-0.47249 -0.85008,-0.59303 -1.058942,-0.74648 -0.805594,-0.59188 -1.37503,-1.10947 -1.771056,-1.60982 -0.101777,-0.12858 -0.275138,-0.38838 -0.331948,-0.49745 l -0.04046,-0.0777 -0.490984,0.003 c -0.330375,0.002 -0.489239,0.008 -0.485648,0.0172 0.0029,0.008 0.09896,0.1361 0.213397,0.28538 0.114433,0.14929 0.282148,0.36846 0.3727,0.48705 0.09055,0.1186 0.22156,0.28334 0.291128,0.36609 0.06957,0.0828 0.281742,0.33562 0.471496,0.56194 0.487367,0.58128 0.691882,0.81147 0.951528,1.07095 0.207728,0.2076 0.22681,0.23069 0.22681,0.27446 0,0.0406 -0.0046,0.0478 -0.03047,0.0475 -0.05704,-5.1e-4 -0.470841,-0.31772 -0.822607,-0.63059 -0.185001,-0.16455 -1.292901,-1.24841 -1.643481,-1.60783 -0.286027,-0.29323 -0.503502,-0.57648 -0.603529,-0.78607 -0.02325,-0.0487 -0.04664,-0.0912 -0.05199,-0.0944 -0.0053,-0.003 -0.130962,-0.0103 -0.279152,-0.0158 l -0.269436,-0.01 0.215273,0.23637 c 0.1184,0.13 0.296881,0.32424 0.396623,0.43165 0.290811,0.31314 0.430484,0.48465 0.583569,0.71659 0.145544,0.22052 0.173696,0.30582 0.129277,0.39172 -0.03692,0.0714 -0.132523,0.0767 -0.229091,0.0128 -0.08592,-0.0569 -0.444971,-0.41477 -0.608791,-0.60676 -0.284897,-0.3339 -0.571626,-0.74437 -0.767104,-1.09816 -0.01868,-0.0338 -0.04016,-0.0717 -0.04774,-0.0841 -0.01376,-0.0226 -0.06839,-0.0289 -0.642021,-0.0734 l -0.114171,-0.009 0.05484,0.0495 c 0.04615,0.0417 0.06507,0.0769 0.119397,0.22223 0.683143,1.82728 1.933008,3.42403 3.994494,5.10312 0.79453,0.64714 2.090125,1.59094 2.613383,1.90376 1.076216,0.64339 2.265542,0.99425 3.493538,1.03062 0.06703,0.002 0.152334,0.005 0.189571,0.006 0.03724,10e-4 0.204253,-0.004 0.371145,-0.011 z m -6.274952,-1.20518 c 0.174449,-0.0147 0.585609,-0.0796 0.751516,-0.11864 l 0.101557,-0.0239 -0.196342,-0.14803 c -1.022218,-0.77072 -2.001468,-1.67729 -2.807811,-2.59941 -0.596252,-0.68186 -1.172066,-1.46434 -1.594746,-2.16711 -0.05375,-0.0894 -0.114331,-0.18991 -0.13462,-0.22342 -0.2286,-0.37759 -0.571316,-1.06737 -0.773318,-1.55645 -0.06275,-0.15193 -0.07899,-0.20519 -0.07272,-0.23857 l 0.0081,-0.043 -0.08491,-0.009 c -0.0467,-0.005 -0.108585,-0.0129 -0.137522,-0.0173 -0.05196,-0.008 -0.05253,-0.008 -0.0458,0.0312 0.0037,0.0216 0.05683,0.20378 0.117951,0.40487 0.06113,0.20108 0.19632,0.66722 0.300431,1.03587 0.493523,1.74753 0.76546,2.52393 1.160097,3.31217 0.446659,0.89216 1.013232,1.60694 1.544587,1.94864 0.336984,0.21671 0.809095,0.36649 1.315184,0.41726 0.105415,0.0106 0.39555,0.008 0.548405,-0.005 z m 0.482663,-7.04828 c -0.0059,-0.022 -0.01786,-0.0393 -0.02663,-0.0386 -0.0088,7.4e-4 -0.03271,0.002 -0.05319,0.003 -0.03609,0.002 -0.03538,0.003 0.0231,0.0421 0.03319,0.022 0.06193,0.0384 0.06387,0.0365 0.0019,-0.002 -0.0013,-0.0215 -0.0072,-0.0435 z m 40.891962,-0.34988 c 0.21347,-0.44188 0.32841,-0.83363 0.38581,-1.31496 0.0266,-0.2227 0.0303,-0.68368 0.007,-0.90724 -0.12677,-1.23771 -0.7035,-2.55795 -1.81216,-4.14837 -0.50305,-0.72164 -1.02017,-1.37752 -2.26488,-2.87255 -0.88599,-1.06418 -1.18523,-1.45288 -1.52018,-1.97459 -0.85423,-1.33054 -1.35804,-2.79021 -1.50575,-4.36253 -0.0851,-0.90574 -0.0448,-1.97259 0.1098,-2.90451 0.2876,-1.73406 1.04116,-3.41607 2.2532,-5.029317 0.45451,-0.60496 0.93539,-1.15565 1.50857,-1.72756 0.79569,-0.79392 1.2963,-1.20139 2.26208,-1.8412 0.452,-0.29945 0.65562,-0.42762 1.67906,-1.05697 0.83967,-0.51634 1.20989,-0.74984 1.63167,-1.02911 1.82225,-1.20655 2.8971,-2.25847 3.48625,-3.41186 0.10106,-0.19786 0.23265,-0.50358 0.22154,-0.5147 -0.004,-0.004 -0.0456,0.009 -0.0934,0.028 -0.25906,0.1025 -0.70471,0.21059 -1.06869,0.25921 -0.25892,0.0346 -1.01644,0.0346 -1.29992,5e-5 -0.81401,-0.0992 -1.39175,-0.2449 -2.96544,-0.74766 -2.85936,-0.91352 -4.74139,-1.33645 -6.65533,-1.4956 -0.85618,-0.0712 -1.84832,-0.0762 -2.64723,-0.0134 -0.83384,0.0656 -1.68757,0.20642 -2.49829,0.4122 -2.28743,0.58062 -4.17094,1.72771 -5.45872,3.32445 -0.36883,0.45732 -0.69033,0.96785 -0.96685,1.5353 -0.17473,0.35857 -0.2829,0.62411 -0.40605,0.99684 -0.1876,0.56777 -0.24965,0.87389 -0.39933,1.97019 -0.0625,0.45776 -0.10462,0.69972 -0.16385,0.94109 -0.19036,0.7758 -0.53374,1.15231 -1.10825,1.21515 l -0.0942,0.0103 0.17543,0.14888 c 0.31201,0.26481 0.39124,0.348 0.47633,0.50015 0.10176,0.18197 0.22172,0.37755 0.43629,0.71125 0.098,0.15235 0.20062,0.32255 0.22813,0.37821 l 0.05,0.10121 0.023,-0.12094 c 0.1397,-0.73549 0.22771,-1.40461 0.30176,-2.29425 0.0935,-1.12345 0.24919,-1.93521 0.53497,-2.78941 0.26619,-0.79565 0.60077,-1.45096 1.04268,-2.04218 0.0686,-0.0917 0.13347,-0.17016 0.14424,-0.17429 0.0245,-0.009 0.0727,0.0328 0.0727,0.0637 0,0.0127 -0.0575,0.14126 -0.12769,0.28564 -0.4255,0.87479 -0.69484,1.77982 -0.89418,3.00454 -0.0919,0.56447 -0.15906,1.12725 -0.25058,2.09883 -0.0305,0.32396 -0.0736,0.77183 -0.0958,0.99525 -0.053,0.53384 -0.0567,0.58255 -0.0401,0.52132 0.0237,-0.0874 0.16041,-0.70497 0.3117,-1.40824 0.35126,-1.63289 0.54072,-2.3889 0.7868,-3.13953 0.45462,-1.38676 1.05396,-2.51548 1.82773,-3.44207 0.18871,-0.22599 0.58636,-0.62988 0.8112,-0.82394 0.97374,-0.84043 2.09608,-1.33605 3.40693,-1.5045 0.11249,-0.0144 0.28085,-0.0304 0.37415,-0.0353 l 0.16963,-0.009 0.0234,0.0357 c 0.0129,0.0197 0.0204,0.0435 0.0168,0.053 -0.004,0.009 -0.0789,0.0379 -0.16736,0.0631 -0.97213,0.27769 -1.89237,0.72274 -2.62594,1.26996 -0.50521,0.37688 -1.04311,0.90812 -1.46419,1.44607 -0.54933,0.70177 -1.06953,1.61308 -1.55751,2.72848 -0.57969,1.32503 -0.70034,1.7552 -1.08045,3.85237 -0.16489,0.90973 -0.25596,1.37254 -0.34508,1.75366 -0.16684,0.713457 -0.37554,1.347807 -0.61251,1.861737 -0.12389,0.26867 -0.24703,0.48627 -0.45351,0.8014 -0.0113,0.0172 -0.0173,0.0314 -0.0132,0.0314 0.0142,0 0.295,-0.38354 0.45381,-0.61994 0.30548,-0.45474 0.57241,-0.91996 0.89515,-1.56013 0.24528,-0.486527 0.34673,-0.700997 0.75906,-1.604587 0.66547,-1.45832 0.89675,-1.92799 1.25689,-2.55245 0.31387,-0.54421 0.68861,-1.10922 1.09118,-1.64521 0.59278,-0.78925 1.32017,-1.59339 1.68958,-1.86787 0.57522,-0.4274 1.24074,-0.67979 2.48243,-0.94145 0.17874,-0.0377 0.46663,-0.0996 0.63975,-0.13771 0.25615,-0.0563 0.31856,-0.0661 0.33513,-0.0523 0.0553,0.0459 0.0232,0.0638 -0.70406,0.39279 -0.89203,0.4035 -1.20712,0.55624 -1.5572,0.75488 -0.78534,0.44561 -1.36671,0.95282 -1.89196,1.65063 -0.62505,0.83038 -1.2945,1.86561 -1.79375,2.77381 -0.36457,0.6632 -0.54426,1.03433 -1.01291,2.09206 -0.37773,0.85252 -0.52511,1.172327 -0.71685,1.555467 -0.0795,0.15896 -0.1422,0.29144 -0.13923,0.2944 0.006,0.006 0.23204,-0.24211 0.51941,-0.57026 0.17753,-0.20272 0.42781,-0.497557 1.30051,-1.532057 1.06755,-1.26548 1.78021,-2.00894 2.50934,-2.61779 1.58228,-1.32127 3.2318,-1.90955 5.12521,-1.82783 0.18618,0.008 0.35939,0.019 0.3849,0.0243 0.075,0.0156 0.0647,0.0386 -0.0221,0.049 -0.16059,0.0193 -0.56028,0.0913 -0.80218,0.14453 -1.08704,0.23917 -2.129,0.65651 -3.11509,1.24771 -0.973,0.58334 -1.95007,1.38347 -2.82915,2.31679 -0.54214,0.57559 -0.7356,0.81538 -1.55819,1.931337 -0.4996,0.67778 -0.71264,0.95987 -0.93906,1.24342 -0.0793,0.0993 -0.1441,0.18302 -0.1441,0.18615 0,0.008 0.36474,-0.21569 0.73797,-0.45231 0.17129,-0.1086 0.79282,-0.51823 1.38117,-0.91031 1.17789,-0.784937 1.27055,-0.846037 1.6255,-1.071937 0.53512,-0.34056 1.20888,-0.74178 1.24567,-0.74178 0.0105,0 0.0298,0.0162 0.0428,0.0361 l 0.0237,0.0361 -0.12151,0.1145 c -1.56883,1.478327 -2.71774,2.426427 -4.1356,3.412767 -0.0554,0.0386 -0.0955,0.0701 -0.089,0.0701 0.0253,0 0.48837,-0.12845 0.75849,-0.2104 0.40078,-0.12159 0.62459,-0.20066 0.97149,-0.34323 0.26977,-0.11087 0.2833,-0.11709 0.64384,-0.29627 0.29935,-0.14877 0.31659,-0.15555 0.33852,-0.13311 0.0219,0.0224 0.018,0.0283 -0.0717,0.11122 -0.68653,0.63432 -1.4568,1.11769 -2.37153,1.48824 -0.19706,0.0798 -0.52182,0.19437 -0.6887,0.2429 l -0.10832,0.0315 0.0609,0.008 c 0.19431,0.0257 1.35023,0.14831 1.66552,0.17671 0.9034,0.0814 1.46626,0.10753 2.31549,0.10755 1.1878,3e-5 2.14337,-0.0771 3.19304,-0.25789 l 0.20729,-0.0357 0.0365,0.0272 c 0.0496,0.0369 0.0879,0.1054 0.0774,0.13834 -0.009,0.0288 -0.0846,0.061 -0.42011,0.17946 -0.60974,0.2153 -1.33857,0.39476 -1.96983,0.48503 -0.64378,0.0921 -1.02329,0.11433 -1.78015,0.10442 -0.69328,-0.009 -0.9107,-0.0254 -2.10643,-0.15844 -0.33142,-0.0369 -0.73967,-0.0795 -0.90724,-0.0946 -0.29264,-0.0265 -0.70647,-0.0538 -0.71498,-0.0471 -0.002,0.002 0.0739,0.0442 0.16926,0.0944 0.68753,0.36168 1.48357,0.92716 2.19396,1.5585 0.39923,0.35481 1.05843,1.03566 1.12228,1.15912 0.0252,0.0487 0.0199,0.1183 -0.0104,0.13725 -0.0344,0.0215 -0.12974,-0.0154 -0.16743,-0.0648 -0.0474,-0.0622 -0.0646,-0.11498 -0.0451,-0.13853 0.0128,-0.0154 0.0107,-0.0246 -0.01,-0.0445 -0.0606,-0.0584 -1.0666,-0.74798 -2.14511,-1.47027 -0.56435,-0.37795 -0.75276,-0.4969 -0.914,-0.57702 -0.2718,-0.13506 -0.5151,-0.22811 -0.77183,-0.29519 -0.0223,-0.006 -0.0745,-0.0206 -0.11594,-0.0329 -0.11845,-0.0351 -0.59847,-0.14175 -0.58593,-0.13018 0.006,0.006 0.0888,0.0535 0.1836,0.10627 0.63771,0.35481 1.39931,0.97136 2.25203,1.8231 0.53608,0.53546 0.96617,1.04361 1.50724,1.7808 0.30245,0.41208 0.48923,0.68472 1.1825,1.72605 0.51286,0.77034 0.67489,1.02336 0.67185,1.04917 -0.005,0.0427 -0.0565,0.0631 -0.10852,0.043 -0.0351,-0.0136 -0.36834,-0.42151 -0.95166,-1.16499 -0.57533,-0.7333 -0.96857,-1.22407 -1.28669,-1.6058 -0.52741,-0.63288 -0.88878,-1.02331 -1.2757,-1.37831 -0.98201,-0.90098 -2.0379,-1.5432 -3.39856,-2.06711 l -0.24499,-0.0943 -0.0554,0.0218 c -0.0305,0.012 -0.0554,0.0254 -0.0554,0.0299 3e-5,0.004 0.0579,0.0375 0.12858,0.0735 0.39216,0.19953 0.91955,0.62539 1.39882,1.12952 0.29118,0.3063 0.42568,0.46002 0.92117,1.05286 0.24276,0.29046 0.5942,0.70785 0.78098,0.92755 1.07529,1.26479 1.38992,1.66952 1.93432,2.48825 0.37884,0.56974 0.51459,0.75863 0.71653,0.997 0.12632,0.14911 0.34665,0.36612 0.45247,0.44564 0.10575,0.0795 0.0917,0.14591 -0.0195,0.0921 -0.0957,-0.0463 -0.30619,-0.18709 -0.4367,-0.29206 -0.42034,-0.33808 -0.75924,-0.72531 -1.42844,-1.6321 -0.30754,-0.41673 -0.43531,-0.58164 -0.65046,-0.83953 -0.0901,-0.10799 -0.34888,-0.42484 -0.57507,-0.70412 -1.02621,-1.26704 -1.51303,-1.80362 -2.12907,-2.34668 -0.065,-0.0573 -0.12209,-0.10422 -0.12681,-0.10422 -0.005,0 0.002,0.0168 0.016,0.0372 0.39102,0.5926 0.67722,1.15094 1.28234,2.50167 0.40628,0.9069 0.53654,1.17018 0.90772,1.83479 1.26258,2.26063 2.66165,3.98481 4.11883,5.07595 0.23228,0.17393 0.6325,0.43942 0.85984,0.5704 0.37336,0.21509 0.88935,0.44888 1.28094,0.58039 0.69286,0.23268 1.29905,0.32989 2.05238,0.32915 0.34142,-3.4e-4 0.38917,0.002 0.39639,0.021 0.005,0.0118 0.006,0.024 0.002,0.0272 -0.0134,0.0134 -0.33973,0.0726 -0.50935,0.0925 -0.31333,0.0367 -0.80464,0.0275 -1.15098,-0.0217 -1.35792,-0.19264 -2.91497,-0.95484 -4.394,-2.15094 -1.02788,-0.83125 -1.64369,-1.52913 -2.27143,-2.57411 -0.40885,-0.68061 -0.7247,-1.32154 -1.38463,-2.80973 -0.76146,-1.71713 -1.13725,-2.45187 -1.63809,-3.20279 -0.15194,-0.22782 -0.45423,-0.64025 -0.46291,-0.63158 -0.003,0.003 0.0463,0.11086 0.10872,0.24051 0.26987,0.56054 0.47078,1.10975 0.73266,2.00281 0.28675,0.9779 0.56419,1.69456 1.09818,2.83681 0.24034,0.51409 1.2871,2.59433 1.4386,2.85892 0.37541,0.65567 0.77377,1.22195 1.2561,1.78559 0.2061,0.24084 0.72992,0.76961 0.96385,0.97294 1.40565,1.22184 3.00865,1.94921 4.83731,2.19498 0.41896,0.0563 0.59529,0.0661 1.25056,0.0696 l 0.64799,0.003 0.0321,0.0301 c 0.0177,0.0166 0.0424,0.057 0.0549,0.0898 0.0198,0.0519 0.0202,0.0622 0.003,0.0791 -0.0118,0.0118 -0.10525,0.0327 -0.23571,0.0527 -1.33588,0.2053 -2.74863,0.0885 -4.04151,-0.33415 -1.3131,-0.42925 -2.45181,-1.13087 -3.37192,-2.07759 -0.88252,-0.90805 -1.66853,-2.08721 -2.32191,-3.48331 -0.37169,-0.7942 -0.71234,-1.6532 -1.19796,-3.02088 -0.12032,-0.33886 -0.31389,-0.88421 -0.43016,-1.2119 -0.19942,-0.56204 -0.23872,-0.6638 -0.22683,-0.58735 0.003,0.0177 0.0205,0.12662 0.0395,0.24206 0.0426,0.25922 0.0946,0.64175 0.18381,1.35408 0.14451,1.15363 0.25135,1.71831 0.46756,2.4712 0.75854,2.64148 2.29517,4.79305 4.33927,6.0758 0.85813,0.53851 1.88069,0.95244 2.78291,1.12652 0.77391,0.14932 1.21791,0.17762 3.31724,0.21144 1.25313,0.0202 1.77582,0.062 2.45089,0.19622 1.30119,0.25864 2.37964,0.82619 3.24481,1.70765 0.46074,0.4694 0.74334,0.86165 1.02607,1.42416 0.0259,0.0515 0.0487,0.0815 0.0576,0.076 0.008,-0.005 0.0623,-0.10734 0.12023,-0.22733 z m -43.202639,-0.1698 c 1.978834,-0.121 3.76427,-0.39912 6.134177,-0.95552 1.377526,-0.32341 2.419826,-0.65301 3.533985,-1.11752 2.342051,-0.97644 4.447267,-2.43789 5.587837,-3.87912 0.80364,-1.01547 1.38958,-2.25634 1.68162,-3.56124 0.14719,-0.65762 0.17122,-1.28489 0.0752,-1.96342 -0.14961,-1.05764 -0.56088,-2.15443 -1.43845,-3.83612 -0.0944,-0.18097 -0.17171,-0.33807 -0.17171,-0.3491 0,-0.0308 0.0372,-0.0381 0.0733,-0.0144 0.0607,0.0397 0.55679,0.87763 0.85147,1.438 0.12669,0.24092 0.29848,0.59488 0.40905,0.84284 0.0209,0.0469 0.042,0.0804 0.047,0.0745 0.005,-0.006 0.0167,-0.0504 0.0262,-0.0988 0.0989,-0.50597 0.43654,-1.05233 0.93139,-1.50699 0.61711,-0.567 1.40911,-1.0248 2.90873,-1.68135 0.96601,-0.42294 1.1834,-0.52084 1.47595,-0.66473 0.56614,-0.27846 0.89809,-0.49905 1.2923,-0.85881 0.19034,-0.1737 0.42354,-0.43393 0.41272,-0.46056 -0.0328,-0.0806 -0.0242,-0.10858 0.13721,-0.44701 0.42288,-0.88679 0.74804,-1.75597 0.98157,-2.62382 l 0.0556,-0.20677 -0.0479,-0.175477 c -0.16353,-0.59922 -0.45569,-1.08861 -0.98224,-1.64531 -0.0626,-0.0662 -0.11761,-0.14002 -0.14121,-0.18957 -0.0384,-0.0806 -0.0418,-0.0834 -0.48452,-0.40613 -0.24522,-0.17874 -0.46483,-0.33535 -0.48802,-0.34803 -0.0232,-0.0127 -0.058,-0.0379 -0.0774,-0.0561 -0.0435,-0.0407 -0.70827,-0.51559 -1.25394,-0.89577 -2.4714,-1.72186 -4.48098,-2.8285 -6.67541,-3.67603 -2.594785,-1.00215 -5.540082,-1.70126 -9.24185,-2.19368 -2.751318,-0.36599 -5.531922,-0.48769 -8.19898,-0.35885 -2.890137,0.13961 -5.686032,0.57628 -8.334392,1.3017 -1.09047,0.2987 -2.2728,0.68892 -3.21414,1.06081 l -0.28255,0.11162 0.13625,0.0713 c 0.17703,0.0927 0.29636,0.17266 0.5004,0.33534 0.60258,0.48044 1.23183,1.10518 1.79483,1.78197 0.52212,0.62765 1.26207,1.65825 1.72985,2.40934 0.40137,0.64446 0.72523,1.20165 1.07197,1.84424 0.44054,0.81643 0.9579,1.895737 1.427961,2.978977 0.27905,0.64307 0.746862,1.79928 0.90373,2.2336 0.346433,0.95917 0.549539,1.95251 0.618249,3.02372 0.03265,0.50909 0.0029,1.44943 -0.06175,1.95295 -0.01051,0.0818 -0.01776,0.15007 -0.01613,0.1517 0.0016,0.002 0.04707,-0.0388 0.100962,-0.0899 0.226119,-0.21434 0.620478,-0.43829 1.220346,-0.69304 1.838696,-0.78085 5.094291,-1.50849 5.899941,-1.31868 0.13269,0.0313 0.426805,0.15136 0.661514,0.27011 1.384738,0.70061 2.175615,2.04476 2.223428,3.77887 0.0151,0.54767 -0.05984,0.95552 -0.247405,1.34636 -0.285135,0.59417 -0.776835,0.98502 -1.522861,1.21053 -0.874059,0.26421 -2.195305,0.24039 -3.298313,-0.0595 -1.523398,-0.41415 -2.956607,-1.29587 -4.956324,-3.04916 -0.150802,-0.13222 -0.279089,-0.2404 -0.285082,-0.2404 -0.006,0 -0.03975,0.11425 -0.07501,0.25389 -0.293277,1.16139 -0.80662,2.37487 -1.476446,3.49016 -1.11323,1.85355 -2.73325,3.52164 -4.5578,4.69304 -0.0976,0.0627 -0.17757,0.11811 -0.17765,0.12318 -2.5e-4,0.0162 1.3401,0.5405 2.01744,0.78912 2.03151,0.74566 3.751891,1.25897 5.401684,1.61169 1.257286,0.2688 2.217648,0.39833 3.359245,0.45311 0.315233,0.0151 1.717483,0.007 2.024356,-0.0118 z m 2.754759,-15.0679 c -0.0732,-0.0616 -0.08397,-0.10604 -0.05258,-0.21696 0.05613,-0.19835 0.128578,-0.37925 0.283482,-0.70783 0.181822,-0.38569 0.234316,-0.57832 0.234316,-0.85985 0,-0.27931 -0.06715,-0.52803 -0.23397,-0.86661 -0.112044,-0.22741 -0.188944,-0.33301 -0.379641,-0.52132 -0.414888,-0.40971 -1.086111,-0.76543 -1.85029,-0.98057 -0.179026,-0.0504 -0.444246,-0.10734 -0.46607,-0.10007 -0.0075,0.002 0.02062,0.0502 0.06248,0.1059 0.224076,0.29841 0.34882,0.5604 0.414542,0.87063 0.03802,0.17945 0.04123,0.53032 0.0067,0.73376 -0.115596,0.6815 -0.489353,1.38617 -1.039699,1.96021 -0.113397,0.11828 -0.131733,0.13217 -0.174136,0.13193 -0.108272,-6e-4 -0.216653,-0.13445 -0.216653,-0.26755 0,-0.0886 0.07793,-0.39876 0.161862,-0.64409 0.03776,-0.11037 0.13947,-0.37543 0.226033,-0.58903 0.33455,-0.82552 0.410015,-1.10989 0.370775,-1.39715 -0.05268,-0.38568 -0.303622,-0.78908 -0.731479,-1.17589 -0.28661,-0.25911 -0.502466,-0.41886 -1.15725,-0.85641 -0.474261,-0.31693 -0.49721,-0.33623 -0.534552,-0.44959 -0.01326,-0.0402 -0.01336,-0.0556 -4.78e-4,-0.0711 0.03207,-0.0386 0.101802,-0.0199 0.358876,0.0964 0.72894,0.32987 1.268775,0.64978 1.689942,1.00147 0.09328,0.0779 0.173489,0.14162 0.17824,0.14162 0.0081,0 0.247441,-0.17132 0.534839,-0.38291 0.168309,-0.12391 0.406981,-0.36634 0.502918,-0.51084 0.190071,-0.28627 0.26891,-0.52833 0.26891,-0.82563 0,-0.47948 -0.247543,-0.965137 -0.746331,-1.464217 -0.265863,-0.26602 -0.499888,-0.43776 -0.830417,-0.6094 -0.138186,-0.0717 -0.71374,-0.33449 -0.967896,-0.44184 -0.01445,-0.006 -0.01678,-0.002 -0.0093,0.0178 0.0055,0.0143 0.02251,0.0991 0.03783,0.18854 0.04839,0.28244 0.02098,0.59372 -0.07769,0.88196 -0.10316,0.30138 -0.319028,0.64636 -0.572737,0.915297 -0.07493,0.0794 -0.09291,0.0917 -0.134079,0.0917 -0.06318,0 -0.129865,-0.0431 -0.180526,-0.116767 -0.09057,-0.13164 -0.112772,-0.22596 -0.08068,-0.3427 0.01638,-0.0596 0.118338,-0.33007 0.15525,-0.41187 0.03473,-0.077 0.158662,-0.36619 0.186547,-0.43535 0.01501,-0.0372 0.0323,-0.0799 0.03841,-0.0948 0.03791,-0.0923 0.107365,-0.31021 0.114805,-0.36009 0.0048,-0.0325 0.01132,-0.0632 0.01439,-0.0681 0.0031,-0.005 0.0066,-0.063 0.0078,-0.12905 0.0028,-0.14725 -0.02671,-0.24538 -0.125516,-0.41771 -0.151284,-0.26384 -0.397102,-0.52104 -0.892011,-0.93331 -0.140853,-0.11733 -0.4006,-0.29892 -0.595944,-0.41663 -0.218089,-0.13142 -0.517666,-0.28516 -1.078343,-0.55338 -0.782012,-0.37412 -0.78667,-0.37686 -0.811124,-0.47632 -0.01356,-0.0552 0.01372,-0.0584 0.201004,-0.0241 0.651145,0.11927 1.381323,0.38859 1.979844,0.73028 0.208124,0.11881 0.54107,0.34331 0.717412,0.48374 0.193863,0.15437 0.502959,0.45831 0.622879,0.61247 0.05213,0.067 0.10342,0.12227 0.113974,0.12278 0.01055,5.2e-4 0.08672,-0.0443 0.169261,-0.0995 0.620924,-0.41567 0.982834,-1.02391 0.982834,-1.65178 0,-0.27829 -0.04983,-0.48821 -0.17707,-0.74604 -0.184496,-0.37383 -0.512479,-0.70191 -1.028559,-1.02887 -0.703818,-0.44588 -1.43327,-0.73884 -2.673061,-1.07353 -0.09744,-0.0263 -0.157936,-0.0763 -0.13575,-0.11221 0.02177,-0.0352 0.653613,0.0101 1.069306,0.0766 1.498632,0.24001 2.597458,0.84799 3.127434,1.7304 0.04526,0.0754 0.103501,0.18419 0.129415,0.24182 l 0.04712,0.1048 0.226116,10e-6 c 0.372264,2e-5 0.679456,0.0522 1.073805,0.18223 0.872505,0.28779 1.692056,0.87408 2.223303,1.59052 0.0023,0.003 0.06258,-0.008 0.133933,-0.0241 0.465805,-0.107 0.945106,-0.0361 1.45057,0.2145 0.535315,0.26543 1.03296,0.71511 1.326175,1.19834 0.333681,0.54992 0.281066,1.38343 -0.127381,2.01794 -0.296125,0.460007 -0.735658,0.730987 -1.203343,0.741857 l -0.123773,0.003 0.0441,0.088 c 0.481775,0.96156 0.355391,2.0089 -0.328621,2.72326 -0.142501,0.14883 -0.324842,0.30712 -0.396418,0.34413 -0.05393,0.0279 -0.12308,0.004 -0.179808,-0.0624 -0.0507,-0.0592 -0.07036,-0.1227 -0.04987,-0.161 0.0072,-0.0134 0.114259,-0.14851 0.237928,-0.30017 0.507727,-0.62265 0.64611,-0.91667 0.645989,-1.37256 -1.75e-4,-0.65556 -0.372379,-1.31654 -1.046174,-1.85784 -0.595401,-0.478317 -1.221088,-0.720387 -2.004045,-0.775337 -0.19806,-0.0139 -0.460388,-0.0188 -0.460388,-0.009 0,0.003 0.04787,0.0739 0.106371,0.15753 0.236914,0.33851 0.351751,0.5675 0.414874,0.827257 0.172895,0.71148 -0.06664,1.49479 -0.605065,1.97869 l -0.09695,0.0871 0.100542,0.0243 c 0.500128,0.12098 1.065568,0.43961 1.603575,0.90364 0.543123,0.46843 0.864319,0.95687 0.977435,1.48639 0.0351,0.16431 0.03502,0.60831 -1.42e-4,0.7715 -0.07479,0.34712 -0.223404,0.66671 -0.452264,0.9726 -0.116915,0.15626 -0.43407,0.4766 -0.471864,0.4766 -0.01693,0 -0.05035,-0.0165 -0.07428,-0.0366 z m 2.255353,-6.88499 c 0.443999,-0.384317 0.696456,-0.670937 0.826952,-0.938857 0.09021,-0.18521 0.117823,-0.30454 0.119078,-0.51456 8.54e-4,-0.14292 -0.0049,-0.19865 -0.03036,-0.29635 -0.06505,-0.24913 -0.176413,-0.45939 -0.332682,-0.6281 -0.341352,-0.36853 -0.977893,-0.67198 -1.625221,-0.77477 -0.183668,-0.0292 -0.413404,-0.0488 -0.413404,-0.0354 0,0.005 0.01752,0.0438 0.03894,0.0864 0.05895,0.11728 0.133413,0.32509 0.17208,0.48022 0.07065,0.28344 0.05844,0.66874 -0.02986,0.94289 -0.07675,0.23826 -0.247974,0.52846 -0.428337,0.72595 l -0.07405,0.0811 0.154108,0.0907 c 0.469547,0.27648 0.885622,0.6457 1.167532,1.036057 l 0.07032,0.0974 0.07059,-0.0709 c 0.03882,-0.039 0.18027,-0.16579 0.314324,-0.28183 z m -1.987036,-1.353557 c 0.215024,-0.49425 0.314742,-0.82453 0.314742,-1.04247 0,-0.36005 -0.258477,-0.79955 -0.771557,-1.31194 -0.54541,-0.54467 -0.972796,-0.78765 -1.821515,-1.0356 -0.244498,-0.0714 -0.793456,-0.21335 -0.799989,-0.20682 -0.0026,0.003 0.0086,0.0653 0.02487,0.13946 0.04021,0.18354 0.04366,0.65402 0.0061,0.83215 -0.117939,0.55934 -0.449736,1.04862 -0.948508,1.3987 -0.06584,0.0462 -0.128796,0.0904 -0.139909,0.0982 -0.01584,0.0111 0.0057,0.0239 0.09939,0.0592 0.16208,0.0609 0.467648,0.20898 0.810181,0.39248 0.43639,0.23379 0.617342,0.36294 0.931738,0.66504 l 0.170428,0.16375 0.227515,-0.0168 c 0.350327,-0.0258 0.88434,-0.0227 1.073819,0.006 0.255494,0.0392 0.639309,0.14413 0.683812,0.18694 0.0089,0.009 0.01622,-0.002 0.02135,-0.0317 0.0043,-0.0246 0.05718,-0.15824 0.117529,-0.29695 z m -16.373039,20.112687 c 0.0231,-0.0202 0.16016,-0.14066 0.30466,-0.26773 0.14451,-0.12707 0.50648,-0.43755 0.80438,-0.68995 1.01901,-0.86336 1.3712,-1.18106 1.85538,-1.67363 0.87838,-0.89362 1.40909,-1.65682 2.03745,-2.93004 1.220538,-2.47313 1.665295,-4.80317 1.346611,-7.05478 -0.08616,-0.60877 -0.222334,-1.17397 -0.453464,-1.88218 -0.705987,-2.16322 -1.809227,-4.464087 -3.314507,-6.912597 -0.77214,-1.25598 -1.36721,-2.06759 -2.13121,-2.90672 -0.30047,-0.33003 -0.6823,-0.70557 -0.75443,-0.74202 -0.083,-0.042 -0.22866,-0.0869 -0.61642,-0.19009 -0.57113,-0.15205 -0.79142,-0.22365 -1.07466,-0.34928 l -0.15334,-0.068 -0.53047,0.26531 c -0.98554,0.49291 -1.77456,0.95105 -2.67886,1.55545 -1.14589,0.76588 -2.23378,1.62938 -3.28745,2.60938 -0.31198,0.29017 -1.18922,1.17243 -1.48976,1.49828 -1.47468,1.598917 -2.86763,3.458607 -4.09245,5.463727 -0.40222,0.65848 -0.89118,1.59576 -1.07232,2.05554 -0.28564,0.72499 -0.25031,1.53956 0.10287,2.37232 0.44754,1.05522 1.43704,2.21422 2.86896,3.36039 0.78432,0.62781 1.62366,1.20524 2.99131,2.05791 0.83193,0.51866 0.83543,0.52054 1.16451,0.62274 1.35879,0.422 2.94175,0.24766 4.38046,-0.48244 0.16385,-0.0832 0.37102,-0.19562 0.46039,-0.24993 0.83824,-0.5094 1.53582,-1.17254 2.04831,-1.94716 0.0702,-0.10612 0.13667,-0.19295 0.14769,-0.19295 0.0301,0 0.0992,0.0751 0.0992,0.1079 0,0.0158 -0.0453,0.12139 -0.10072,0.23462 -0.81589,1.66781 -2.34185,2.86842 -4.06309,3.1968 -0.34651,0.0661 -0.52811,0.0821 -0.93432,0.0821 -0.37823,0 -0.58488,-0.0162 -0.84922,-0.0666 -0.0521,-0.01 -0.0895,-0.0129 -0.0831,-0.007 0.0205,0.0203 0.71736,0.37142 1.14222,0.5755 1.035,0.49718 1.84577,0.8592 3.981,1.7776 0.60697,0.26106 1.27724,0.55101 1.4895,0.64433 0.21225,0.0933 0.392,0.16964 0.39945,0.1696 0.007,-5e-5 0.0324,-0.0166 0.0555,-0.0368 z m -5.57337,-7.85137 c -0.58002,-0.0502 -0.97458,-0.11061 -1.50303,-0.22996 -0.19881,-0.0449 -0.21221,-0.05 -0.25389,-0.0964 -0.055,-0.0612 -0.0619,-0.1348 -0.0135,-0.1454 0.0168,-0.004 0.30467,-0.0161 0.6398,-0.0277 1.15431,-0.0397 1.62898,-0.0779 2.2002,-0.17684 0.88317,-0.15301 1.73954,-0.48888 2.42789,-0.95222 1.05559,-0.71053 1.74783,-1.84636 1.89979,-3.11719 0.0243,-0.20359 0.0316,-0.60775 0.0148,-0.82821 -0.0105,-0.13816 -0.01,-0.14556 0.0148,-0.14556 0.0418,0 0.0647,0.0394 0.10246,0.17603 0.20909,0.75672 0.17803,1.52567 -0.0922,2.28206 -0.0872,0.24395 -0.30584,0.68024 -0.45353,0.90482 -0.23377,0.35545 -0.40434,0.5637 -0.71727,0.8757 -0.83857,0.83608 -1.81027,1.30041 -3.04768,1.45636 -0.16124,0.0203 -1.05845,0.0383 -1.21867,0.0244 z m 0.006,-1.46724 c -0.97458,-0.0617 -1.87,-0.46807 -2.56558,-1.16429 -0.14306,-0.14319 -0.35212,-0.3915 -0.45649,-0.54218 -0.36374,-0.52512 -0.59905,-1.15473 -0.6731,-1.80094 -0.0241,-0.21037 -0.0277,-0.64709 -0.007,-0.85502 0.0572,-0.5758 0.24202,-1.13713 0.53944,-1.63839 0.0549,-0.0925 0.19393,-0.29808 0.24141,-0.35693 0.006,-0.007 0.0262,-0.0324 0.0448,-0.0554 0.0186,-0.023 0.0521,-0.0655 0.0745,-0.0944 0.11727,-0.15165 0.37854,-0.40481 0.5958,-0.57731 0.56593,-0.44932 1.23467,-0.7266 1.9905,-0.8253 0.0829,-0.0108 0.26926,-0.0173 0.4807,-0.0168 0.38255,0.001 0.58365,0.0233 0.90724,0.10077 1.14234,0.27333 2.09392,1.0246 2.62323,2.07103 0.26405,0.52203 0.40035,1.06385 0.41898,1.66553 0.0212,0.6833 -0.11559,1.3114 -0.41595,1.91058 -0.4922,0.98188 -1.34874,1.69923 -2.41458,2.02222 -0.41543,0.12589 -0.9378,0.1851 -1.38377,0.15686 z m 0.76199,-0.50001 c 0.36838,-0.0556 0.70369,-0.16101 1.03976,-0.32679 0.11916,-0.0588 0.28063,-0.14877 0.35883,-0.19996 1.06218,-0.6954 1.65808,-1.88066 1.58276,-3.14821 -0.0286,-0.48101 -0.13824,-0.89789 -0.34978,-1.32971 -0.50291,-1.02661 -1.43913,-1.71875 -2.59515,-1.91857 -0.15166,-0.0262 -0.22385,-0.0302 -0.54709,-0.0304 -0.41597,-2.6e-4 -0.55437,0.0162 -0.90047,0.10689 -0.97412,0.25535 -1.79509,0.92996 -2.24174,1.84212 -0.175,0.35739 -0.2659,0.64676 -0.32601,1.03783 -0.0393,0.25546 -0.0425,0.71954 -0.007,0.96622 0.1497,1.03242 0.70381,1.90442 1.57246,2.47461 0.42871,0.28141 0.98718,0.48396 1.48272,0.53778 0.0708,0.008 0.14997,0.0165 0.17604,0.0195 0.11701,0.0138 0.58401,-0.006 0.7544,-0.0313 z m -0.97783,-0.71948 c -0.43955,-0.0501 -0.8676,-0.20162 -1.21191,-0.4289 -0.71151,-0.46967 -1.16065,-1.20791 -1.24516,-2.04664 -0.11102,-1.10172 0.45947,-2.16772 1.44892,-2.7074 0.24574,-0.13404 0.60815,-0.24974 0.91736,-0.29286 0.1758,-0.0245 0.53703,-0.0282 0.70726,-0.007 0.48964,0.0605 0.94355,0.24283 1.33751,0.53717 0.12943,0.0967 0.35883,0.31707 0.46537,0.44704 0.329,0.40134 0.5416,0.90097 0.60639,1.42506 0.021,0.17023 0.0174,0.53146 -0.007,0.70726 -0.16881,1.21033 -1.09976,2.1599 -2.30096,2.34701 -0.16366,0.0255 -0.56827,0.0364 -0.71767,0.0194 z m 1.069,-2.77487 c 0.37842,-0.0979 0.66726,-0.36895 0.79428,-0.74526 0.0381,-0.11287 0.0442,-0.15105 0.0496,-0.31144 0.005,-0.15357 0.002,-0.20186 -0.0223,-0.30198 -0.0854,-0.35769 -0.31913,-0.63605 -0.65919,-0.78517 -0.15732,-0.069 -0.24001,-0.0841 -0.45949,-0.0838 -0.19801,2.1e-4 -0.20658,0.001 -0.34129,0.0487 -0.438,0.15375 -0.72479,0.50924 -0.77608,0.96198 -0.0524,0.46305 0.2031,0.92485 0.6299,1.13826 0.23087,0.11544 0.52773,0.14523 0.78464,0.0787 z m 18.851002,8.04236 c 1.070182,-0.0854 1.798215,-0.51983 2.19096,-1.30748 0.207185,-0.41551 0.303722,-0.89625 0.267345,-1.33136 -0.0474,-0.5669 -0.250493,-1.07353 -0.635601,-1.58552 -0.139228,-0.1851 -0.456882,-0.50861 -0.646152,-0.65806 -0.536643,-0.42377 -1.153297,-0.68967 -1.771656,-0.76396 -0.174094,-0.0209 -0.622848,-0.0172 -0.828104,0.007 -0.39857,0.0468 -0.787782,0.13528 -1.320232,0.30019 -0.777801,0.2409 -0.999375,0.3176 -2.125913,0.7359 -0.503283,0.18687 -0.950736,0.3412 -1.259298,0.43435 -0.217577,0.0657 -0.704318,0.19051 -0.868137,0.22264 l -0.11662,0.0229 -0.01449,0.10324 c -0.008,0.0568 -0.01282,0.10492 -0.01077,0.10696 0.002,0.002 0.04885,-0.015 0.104026,-0.0378 0.05517,-0.0228 0.234367,-0.0865 0.398211,-0.14155 0.958519,-0.32198 1.739968,-0.49709 3.595094,-0.80561 0.405887,-0.0675 0.895555,-0.15052 1.08815,-0.18447 0.249284,-0.044 0.354359,-0.0576 0.3647,-0.0472 0.008,0.008 0.01144,0.0176 0.0077,0.0214 -0.0072,0.007 -0.42153,0.12739 -0.654842,0.19 -0.07448,0.02 -0.165876,0.0445 -0.203113,0.0545 -0.03724,0.01 -0.153012,0.0407 -0.257276,0.0683 -0.104265,0.0276 -0.244412,0.0647 -0.31144,0.0825 -0.06703,0.0178 -0.237641,0.0628 -0.379143,0.0999 -0.333663,0.0875 -0.622536,0.16471 -0.758287,0.20263 -0.05958,0.0166 -0.147934,0.0411 -0.196343,0.0545 -0.11008,0.0303 -0.09046,0.0307 0.284358,0.006 0.167568,-0.011 0.627618,-0.0265 1.022334,-0.0343 0.394715,-0.008 0.818205,-0.0187 0.941088,-0.0242 0.407266,-0.018 1.188709,0.012 1.335892,0.0513 0.02748,0.007 0.04796,0.006 0.05737,-0.003 0.01048,-0.0105 0.02429,-0.006 0.04866,0.0173 0.02959,0.0278 0.04605,0.0679 0.02788,0.0679 -0.0034,0 -0.138959,0.015 -0.301284,0.0332 -0.162326,0.0183 -0.587619,0.0609 -0.945098,0.0948 -1.651183,0.15624 -1.77441,0.16987 -2.287475,0.25296 -0.25766,0.0417 -0.348794,0.0631 -0.278515,0.0652 0.01862,5.7e-4 0.177047,0.0131 0.352062,0.0279 0.945324,0.0796 1.664314,0.17467 3.540931,0.46806 l 0.907236,0.14183 0.03724,0.0405 c 0.03876,0.0422 0.04957,0.0931 0.02031,0.0958 -0.04464,0.004 -0.588529,-0.004 -1.100193,-0.0157 -1.380063,-0.0323 -2.931045,-0.0901 -4.169633,-0.15545 -0.208008,-0.011 -0.387763,-0.0198 -0.399455,-0.0196 -0.02605,5.1e-4 0.482288,0.2209 0.828377,0.35915 0.356047,0.14223 1.27182,0.4485 1.844992,0.61703 1.074481,0.31593 2.174742,0.55894 3.060231,0.67591 l 0.216654,0.0286 0.04919,0.0531 c 0.05326,0.0575 0.07094,0.10989 0.0471,0.13962 -0.03454,0.0431 -0.716332,0.0366 -1.25013,-0.0118 -1.343186,-0.1219 -2.865195,-0.52875 -4.610126,-1.23235 -0.157004,-0.0633 -0.289258,-0.11502 -0.293897,-0.11492 -0.01597,3.3e-4 0.317465,0.17871 0.770163,0.41201 0.24949,0.12858 0.596813,0.30886 0.771828,0.40062 0.806809,0.42304 1.381636,0.65966 1.821244,0.74969 0.09682,0.0198 0.197153,0.0405 0.222968,0.0458 0.05013,0.0105 0.113277,0.0847 0.105712,0.1242 -0.0088,0.046 -0.334038,0.0495 -0.605323,0.007 -0.418232,-0.0662 -0.828005,-0.21652 -1.639387,-0.60145 -0.16012,-0.076 -0.495256,-0.22964 -0.744746,-0.34151 -0.528818,-0.23711 -0.90741,-0.41854 -1.138049,-0.54538 -0.09035,-0.0497 -0.166245,-0.0883 -0.16866,-0.0859 -0.0133,0.0135 0.768635,0.58675 1.117137,0.81906 0.817932,0.54524 1.696203,0.97979 2.458941,1.21666 0.865242,0.2687 1.704638,0.38535 2.38333,0.33121 z m 16.35801,-20.409047 c -0.16648,-0.23605 -0.4268,-0.80565 -0.7875,-1.72307 -0.34075,-0.8667 -0.38256,-0.96475 -0.49516,-1.16113 -0.52462,-0.915 -1.24904,-1.72534 -2.409351,-2.69517 -0.951109,-0.79496 -1.841297,-1.32604 -3.04669,-1.81764 -0.810685,-0.33063 -1.579506,-0.57457 -3.3649,-1.06767 -0.364925,-0.10079 -0.797555,-0.22284 -0.9614,-0.27123 -1.511314,-0.44634 -2.487795,-0.9257101 -3.213717,-1.5776399 -0.135233,-0.12145 -0.235803,-0.24469 -0.299023,-0.36642 -0.0786,-0.15134 -0.100776,-0.24891 -0.100126,-0.44045 5.87e-4,-0.17305 0.018,-0.27791 0.08731,-0.52585 0.02256,-0.0807 0.03851,-0.14922 0.03544,-0.15228 -0.01551,-0.0155 -0.882161,0.23548 -1.391358,0.40296 -2.455843,0.80775 -4.653159,2.0127999 -6.871978,3.7686999 -0.722359,0.57166 -1.153818,0.94946 -1.473866,1.29057 -0.355572,0.37897 -0.650102,0.74644 -1.342433,1.67488 -0.69173,0.92764 -0.96192,1.25748 -1.3707,1.67328 -0.12866,0.13087 -0.29737,0.29235 -0.37493,0.35883 -0.0776,0.0665 -0.13933,0.12262 -0.13728,0.12474 0.002,0.002 0.13706,-0.0293 0.30003,-0.0698 0.44006,-0.10933 1.01296,-0.23734 1.43562,-0.32077 l 0.21853,-0.0431 -0.0336,-0.0735 c -0.0212,-0.0463 -0.0306,-0.0855 -0.0255,-0.10583 0.0117,-0.0467 0.18328,-0.36181 0.31707,-0.58244 0.575407,-0.94885 1.344994,-1.86201 2.785043,-3.30461 0.424074,-0.42482 0.63802,-0.62318 0.934318,-0.86626 0.676486,-0.55498 1.37731,-0.95263 2.098831,-1.1909 0.194419,-0.0642 0.523139,-0.14642 0.751879,-0.18806 0.302931,-0.0551 0.289003,-0.0541 0.316482,-0.0237 0.01345,0.0149 0.02231,0.0331 0.01968,0.0405 -0.0026,0.007 -0.190623,0.10721 -0.41777,0.22175 -1.589161,0.80135 -2.493143,1.45177 -3.410905,2.45419 -0.501921,0.54821 -0.843394,0.95194 -2.07297,2.45089 -0.226036,0.27555 -0.52323,0.634 -0.66043,0.79654 -0.137198,0.16254 -0.247368,0.29756 -0.244828,0.30004 0.002,0.002 0.10212,-0.0131 0.22128,-0.0346 0.119158,-0.0215 0.219754,-0.0393 0.223545,-0.0394 0.0038,-1.3e-4 0.01763,-0.0474 0.03076,-0.10517 0.06789,-0.29853 0.335186,-0.68229 0.794663,-1.14089 0.337323,-0.33668 1.383748,-1.3467 1.580243,-1.52527 0.501315,-0.45558 0.950608,-0.77701 1.406326,-1.00611 0.173372,-0.0872 0.20164,-0.0949 0.215408,-0.059 0.0064,0.0168 -0.02863,0.0612 -0.130867,0.16587 -0.655654,0.67122 -0.97864,1.00891 -1.554924,1.6257 -0.574704,0.61511 -0.646051,0.69929 -1.377197,1.6249 -0.12648,0.16012 -0.225282,0.29294 -0.219559,0.29515 0.0057,0.002 0.140752,-0.0144 0.300064,-0.0369 1.089684,-0.15417 2.596689,-0.29656 3.524996,-0.33305 0.111712,-0.004 0.217105,-0.0109 0.234206,-0.0144 l 0.03109,-0.006 -0.02782,-0.0391 c -0.05851,-0.0822 -0.05318,-0.10547 0.05776,-0.25238 0.196035,-0.25959 0.384178,-0.44874 0.984432,-0.98969 0.352084,-0.31731 0.565209,-0.49532 0.839473,-0.70117 0.390474,-0.29307 0.916478,-0.65732 0.949208,-0.65732 0.04136,0 0.06686,0.0159 0.08647,0.0538 0.01678,0.0325 0.01643,0.0409 -0.0029,0.0694 -0.108298,0.15984 -0.565296,0.63056 -0.97185,1.00102 -0.358096,0.32631 -0.442795,0.40867 -0.778599,0.75708 -0.330167,0.34257 -0.536888,0.52916 -0.718824,0.64882 -0.186967,0.12296 -0.173272,0.11225 -0.134249,0.10506 0.01862,-0.003 0.213607,-0.01 0.433307,-0.0143 0.2197,-0.004 0.474668,-0.0116 0.566594,-0.016 l 0.16714,-0.008 -0.03945,-0.0426 c -0.06166,-0.0665 -0.08495,-0.11196 -0.08495,-0.16569 0,-0.0417 0.01551,-0.0682 0.09754,-0.16635 0.135238,-0.16188 0.443848,-0.47508 0.653977,-0.66371 0.09682,-0.0869 0.380159,-0.32803 0.629649,-0.53583 0.24949,-0.20779 0.545019,-0.45803 0.656731,-0.55608 0.690452,-0.60602 1.321122,-1.07515 1.972831,-1.46752 0.192646,-0.11598 0.243849,-0.13098 0.252001,-0.0738 0.0032,0.0225 -0.140074,0.17358 -0.643191,0.67802 -0.356027,0.35697 -0.826935,0.81921 -1.046462,1.0272 -0.219526,0.20799 -0.627783,0.60744 -0.907236,0.88765 -0.608096,0.60975 -0.838255,0.80305 -1.194703,1.00334 l -0.131431,0.0739 0.794932,0.009 c 4.652888,0.0514 8.984267,0.69088 12.900446,1.90469 1.500786,0.46516 3.099206,1.07206 4.224746,1.60408 0.17874,0.0845 0.33334,0.15424 0.34356,0.15501 0.0148,0.001 0.0142,-0.005 -0.003,-0.0291 z m -12.960719,-3.47495 c -0.08881,-0.0553 -0.155719,-0.15904 -0.155719,-0.24132 0,-0.0875 0.294251,-0.30563 0.846302,-0.62738 0.156397,-0.0911 0.387946,-0.23292 0.514552,-0.31504 0.400475,-0.25975 0.523612,-0.32426 0.76943,-0.4031 0.120479,-0.0386 0.264469,-0.091 0.319978,-0.11631 0.10697,-0.0488 0.125549,-0.0496 0.148907,-0.006 0.01322,0.0247 0.0025,0.0355 -0.110826,0.11129 -0.346989,0.23212 -0.634427,0.46778 -1.005621,0.82446 -0.141502,0.13597 -0.315163,0.29571 -0.385914,0.35497 -0.393132,0.32929 -0.796361,0.50854 -0.941089,0.41835 z"
         id="path1"
         inkscape:label="path1" /></g></g></svg>
